<svg xmlns="http://www.w3.org/2000/svg" viewBox="0 0 187.655 212.172">
  <defs>
    <style>
      .cls-1 {
        isolation: isolate;
      }

      .cls-2 {
        fill: #415f9b;
      }

      .cls-3 {
        opacity: 0.3;
      }

      .cls-3, .cls-5 {
        mix-blend-mode: overlay;
      }

      .cls-4 {
        fill: #fff;
      }

      .cls-5 {
        opacity: 0.1;
      }
    </style>
  </defs>
  <title>facebook</title>
  <g class="cls-1">
    <g id="Lager_1" data-name="Lager 1">
      <g>
        <path class="cls-2" d="M632.519,379.008l79.235-45.746a14.592,14.592,0,0,0,7.3-12.637V229.132a14.6,14.6,0,0,0-7.3-12.639l-79.235-45.747a14.6,14.6,0,0,0-14.593,0l-79.233,45.747a14.591,14.591,0,0,0-7.3,12.639v91.493a14.588,14.588,0,0,0,7.3,12.637l79.233,45.746A14.589,14.589,0,0,0,632.519,379.008Z" transform="translate(-531.395 -168.792)"/>
        <path class="cls-3" d="M652.564,276.325a2.919,2.919,0,0,1-2.832,2.561l-9.855.013a2.579,2.579,0,0,0-2.567,2.573l.065,48.349a2.581,2.581,0,0,1-2.567,2.574l-17.1.022a2.579,2.579,0,0,1-2.574-2.566l-.06-48.348a2.582,2.582,0,0,0-2.578-2.567l-5.432.007a2.578,2.578,0,0,1-2.572-2.566l-.018-13.754a2.575,2.575,0,0,1,2.566-2.574l5.434-.008a2.578,2.578,0,0,0,2.565-2.573l-.011-9.655c-.015-8.744,4.121-22.442,22.4-22.467l13.9.041a2.591,2.591,0,0,1,2.574,2.578l.017,13.2a2.576,2.576,0,0,1-2.567,2.573l-9.38.013c-1.96,0-4.714.986-4.709,5.156l.011,8.551a2.577,2.577,0,0,0,2.572,2.566l11.8-.016a2.277,2.277,0,0,1,2.309,2.553Zm-.261,2.558" transform="translate(-531.395 -168.792)"/>
        <path class="cls-4" d="M648.562,272.323a2.919,2.919,0,0,1-2.832,2.562l-9.855.013a2.579,2.579,0,0,0-2.567,2.573l.065,48.349a2.581,2.581,0,0,1-2.567,2.574l-17.1.022a2.579,2.579,0,0,1-2.574-2.567l-.061-48.348a2.582,2.582,0,0,0-2.578-2.567l-5.432.007a2.577,2.577,0,0,1-2.572-2.566l-.018-13.754a2.575,2.575,0,0,1,2.566-2.574l5.434-.008a2.578,2.578,0,0,0,2.565-2.573l-.011-9.655c-.015-8.744,4.121-22.442,22.4-22.467l13.9.041a2.591,2.591,0,0,1,2.574,2.578l.017,13.2a2.576,2.576,0,0,1-2.567,2.573l-9.38.013c-1.96,0-4.714.986-4.709,5.156l.011,8.551a2.577,2.577,0,0,0,2.572,2.566l11.8-.016a2.277,2.277,0,0,1,2.309,2.553Zm-.261,2.558" transform="translate(-531.395 -168.792)"/>
        <path class="cls-5" d="M711.755,216.494l-79.235-45.747a14.587,14.587,0,0,0-7.3-1.954V380.964a14.57,14.57,0,0,0,7.3-1.956l79.235-45.746a14.592,14.592,0,0,0,7.3-12.637V229.132A14.6,14.6,0,0,0,711.755,216.494Z" transform="translate(-531.395 -168.792)"/>
      </g>
    </g>
  </g>
</svg>
