<svg xmlns="http://www.w3.org/2000/svg" viewBox="0 0 187.655 212.173">
  <defs>
    <style>
      .cls-1 {
        isolation: isolate;
      }

      .cls-2 {
        fill: #936037;
      }

      .cls-3 {
        opacity: 0.3;
      }

      .cls-3, .cls-6 {
        mix-blend-mode: overlay;
      }

      .cls-4, .cls-5 {
        fill-rule: evenodd;
      }

      .cls-5 {
        fill: #fff;
      }

      .cls-6 {
        opacity: 0.15;
      }
    </style>
  </defs>
  <title>Instagram</title>
  <g class="cls-1">
    <g id="Lager_1" data-name="Lager 1">
      <g>
        <path class="cls-2" d="M632.295,379.25l79.236-45.744a14.6,14.6,0,0,0,7.3-12.639V229.376a14.6,14.6,0,0,0-7.3-12.64L632.295,170.99a14.588,14.588,0,0,0-14.592,0l-79.234,45.746a14.593,14.593,0,0,0-7.3,12.64v91.491a14.594,14.594,0,0,0,7.3,12.639L617.7,379.25A14.573,14.573,0,0,0,632.295,379.25Z" transform="translate(-531.172 -169.035)"/>
        <g class="cls-3">
          <path class="cls-4" d="M629.1,226.891c7.917.225,15.847.286,23.753.722,7.212.4,13.78,2.674,19.15,7.807a27.709,27.709,0,0,1,8.423,17.848c.5,5.006.652,10.064.693,15.1.073,9.047,0,18.1-.128,27.143-.062,4.677-.157,9.378-1.365,13.943-3.135,11.885-10.881,18.938-22.909,20.865a116.045,116.045,0,0,1-16.75.993c-9.125.119-18.256.01-27.382-.118a57.123,57.123,0,0,1-13.707-1.336c-11.9-3.085-19-10.8-20.961-22.818a115.008,115.008,0,0,1-1.013-16.986c-.123-9.044-.017-18.095.116-27.14.069-4.877.183-9.77,1.523-14.525,3.248-11.552,10.93-18.37,22.634-20.265,5.609-.907,11.4-.811,17.1-1.032,3.6-.136,7.209-.017,10.812-.012Zm-.2,95.164c0-.061,0-.121,0-.183,4.245,0,8.487.094,12.728-.006,4.157-.1,8.33-.2,12.459-.644,9.17-.993,15.239-6.634,16.649-15.759a101.722,101.722,0,0,0,.879-13.754c.141-8.284.13-16.573.043-24.858-.044-4.233-.185-8.489-.637-12.7-.985-9.2-6.624-15.268-15.729-16.675a98.694,98.694,0,0,0-13.516-.885c-8.483-.142-16.975-.129-25.458-.044-4.155.043-8.332.192-12.46.646-9.127,1.009-15.187,6.643-16.575,15.694a100.219,100.219,0,0,0-.891,13.87c-.122,9.205-.09,18.413.029,27.618a76.066,76.066,0,0,0,.8,11.233c1.231,7.531,5.5,12.678,12.978,14.779a30.085,30.085,0,0,0,6.854,1.085C614.337,321.77,621.62,321.877,628.9,322.055Z" transform="translate(-531.172 -169.035)"/>
          <path class="cls-4" d="M629.049,252.414A26.793,26.793,0,1,1,602.218,279.2,26.775,26.775,0,0,1,629.049,252.414Zm-17.364,26.7A17.326,17.326,0,1,0,629.1,261.883,17.31,17.31,0,0,0,611.685,279.117Z" transform="translate(-531.172 -169.035)"/>
          <path class="cls-4" d="M656.858,257.694a6.271,6.271,0,1,1,6.283-6.23A6.22,6.22,0,0,1,656.858,257.694Z" transform="translate(-531.172 -169.035)"/>
        </g>
        <g>
          <path class="cls-5" d="M625.1,222.887c7.917.225,15.847.286,23.753.722,7.212.4,13.78,2.674,19.15,7.807a27.709,27.709,0,0,1,8.423,17.848c.5,5.006.652,10.063.693,15.1.073,9.047,0,18.1-.128,27.143-.062,4.677-.157,9.378-1.365,13.943-3.135,11.885-10.881,18.938-22.909,20.865a116.03,116.03,0,0,1-16.75.993c-9.125.119-18.254.01-27.38-.118a57.117,57.117,0,0,1-13.707-1.336c-11.9-3.085-19-10.8-20.961-22.818a115,115,0,0,1-1.013-16.986c-.123-9.044-.017-18.095.116-27.14.069-4.877.183-9.77,1.522-14.525,3.248-11.552,10.93-18.37,22.634-20.265,5.609-.907,11.4-.811,17.1-1.032,3.6-.136,7.208-.017,10.811-.012Zm-.2,95.164c0-.061,0-.121,0-.183,4.244,0,8.486.094,12.728-.006,4.157-.1,8.33-.2,12.459-.644,9.17-.993,15.239-6.634,16.649-15.759a101.738,101.738,0,0,0,.879-13.754c.141-8.284.13-16.573.043-24.858-.044-4.233-.185-8.489-.637-12.7-.985-9.2-6.624-15.268-15.729-16.675a98.692,98.692,0,0,0-13.516-.885c-8.483-.142-16.973-.129-25.456-.044-4.155.043-8.332.192-12.46.645-9.127,1.009-15.186,6.644-16.575,15.694a100.22,100.22,0,0,0-.891,13.87c-.122,9.205-.09,18.413.029,27.618a76.052,76.052,0,0,0,.8,11.233c1.231,7.531,5.5,12.678,12.978,14.779a30.085,30.085,0,0,0,6.854,1.085C610.335,317.766,617.618,317.873,624.9,318.051Z" transform="translate(-531.172 -169.035)"/>
          <path class="cls-5" d="M625.045,248.41a26.793,26.793,0,1,1-26.829,26.782A26.775,26.775,0,0,1,625.045,248.41Zm-17.362,26.7a17.325,17.325,0,1,0,17.412-17.234A17.31,17.31,0,0,0,607.683,275.113Z" transform="translate(-531.172 -169.035)"/>
          <path class="cls-5" d="M652.854,253.69a6.271,6.271,0,1,1,6.283-6.23A6.22,6.22,0,0,1,652.854,253.69Z" transform="translate(-531.172 -169.035)"/>
        </g>
        <path class="cls-6" d="M711.531,216.736,632.295,170.99A14.575,14.575,0,0,0,625,169.035V381.207a14.585,14.585,0,0,0,7.295-1.955l79.236-45.746a14.6,14.6,0,0,0,7.3-12.638V229.375A14.6,14.6,0,0,0,711.531,216.736Z" transform="translate(-531.172 -169.035)"/>
      </g>
    </g>
  </g>
</svg>
