<svg width="80" height="78" viewBox="0 0 80 78" fill="none" xmlns="http://www.w3.org/2000/svg">
<g filter="url(#filter0_f_18_58)">
<path d="M8.87567 73V22.7475L24.4081 30.0707L31.3422 22.7475L40.7726 30.0707L52.9767 22.7475V73H8.87567Z" fill="#F2B705"/>
<path d="M8.87567 73V22.7475L24.4081 30.0707L31.3422 22.7475L40.7726 30.0707L52.9767 22.7475V73H8.87567Z" stroke="black"/>
</g>
<path d="M38.8311 60.3737L33.8385 65.8571L38.8311 69.9697L45.4878 65.8572L38.8311 60.3737Z" fill="white" stroke="black"/>
<path d="M8.87567 66.6869L18.0287 58.3535L26.0723 66.6869L18.0287 72.495L8.87567 66.6869Z" fill="white" stroke="black"/>
<g id='letter_s' filter="url(#filter1_d_18_58)">
<path d="M37.4782 36.0344C37.6032 36.0761 37.6345 36.1594 37.572 36.2844C37.5303 36.4094 37.499 36.524 37.4782 36.6281C37.4365 36.774 37.4157 36.9302 37.4157 37.0969C37.4365 37.2427 37.4365 37.3886 37.4157 37.5344C37.3949 37.8052 37.374 38.0865 37.3532 38.3781C37.3532 38.6698 37.322 38.9511 37.2595 39.2219C37.2386 39.3469 37.2074 39.4719 37.1657 39.5969C37.124 39.7011 37.0824 39.8156 37.0407 39.9406C37.0199 40.0448 37.0095 40.1594 37.0095 40.2844C37.0095 40.4094 36.9886 40.524 36.947 40.6281C36.9053 40.8365 36.874 41.0448 36.8532 41.2531C36.8324 41.4615 36.8011 41.6802 36.7595 41.9094C36.7386 42.0136 36.7178 42.1281 36.697 42.2531C36.697 42.3781 36.6865 42.5031 36.6657 42.6281C36.6449 42.7323 36.624 42.8365 36.6032 42.9406C36.5824 43.0448 36.5511 43.149 36.5095 43.2531C36.4678 43.4615 36.4261 43.6698 36.3845 43.8781C36.3428 44.0865 36.3011 44.3052 36.2595 44.5344C36.1761 44.7636 36.124 44.9094 36.1032 44.9719C36.1032 45.0136 36.0824 45.0448 36.0407 45.0656C35.9365 45.0656 35.8949 45.024 35.9157 44.9406C35.9365 44.8365 35.9365 44.7323 35.9157 44.6281C35.8949 44.5448 35.874 44.4719 35.8532 44.4094C35.8532 44.3469 35.8532 44.274 35.8532 44.1906C35.8324 44.1073 35.822 44.0344 35.822 43.9719C35.822 43.8886 35.8115 43.8052 35.7907 43.7219C35.7907 43.6594 35.7907 43.5969 35.7907 43.5344C35.7907 43.4511 35.7803 43.3781 35.7595 43.3156C35.7386 43.2323 35.7074 43.1594 35.6657 43.0969C35.624 43.0136 35.5824 42.9198 35.5407 42.8156C35.499 42.7115 35.4574 42.6073 35.4157 42.5031C35.374 42.3781 35.3324 42.2636 35.2907 42.1594C35.249 42.0969 35.197 42.0344 35.1345 41.9719C35.0928 41.9094 35.0511 41.8365 35.0095 41.7531C34.947 41.5448 34.9053 41.4302 34.8845 41.4094C34.8636 41.3886 34.8428 41.3573 34.822 41.3156C34.7803 41.2115 34.7595 41.1177 34.7595 41.0344C34.7595 40.9511 34.7386 40.8677 34.697 40.7844C34.6345 40.7011 34.6032 40.6386 34.6032 40.5969C34.6032 40.5344 34.5824 40.4823 34.5407 40.4406C34.2907 40.1906 34.1032 40.024 33.9782 39.9406C33.7907 39.774 33.6657 39.6802 33.6032 39.6594C33.5615 39.6386 33.499 39.6073 33.4157 39.5656C33.3324 39.524 33.2178 39.4823 33.072 39.4406C32.9261 39.3781 32.8011 39.3261 32.697 39.2844C32.6136 39.2011 32.5407 39.1698 32.4782 39.1906C32.4157 39.1906 32.3636 39.1802 32.322 39.1594C32.2178 39.1177 32.1136 39.0761 32.0095 39.0344C31.9053 38.9719 31.8011 38.9302 31.697 38.9094C31.5928 38.8677 31.499 38.8469 31.4157 38.8469C31.3324 38.8469 31.249 38.8365 31.1657 38.8156C31.0407 38.774 30.9157 38.7427 30.7907 38.7219C30.6657 38.6802 30.5511 38.6386 30.447 38.5969C30.3845 38.5552 30.3115 38.524 30.2282 38.5031C30.1657 38.4615 30.1136 38.4302 30.072 38.4094C29.9886 38.4302 29.9157 38.4302 29.8532 38.4094C29.8115 38.3886 29.7699 38.3781 29.7282 38.3781C29.624 38.3573 29.499 38.3365 29.3532 38.3156C29.2282 38.2948 29.1136 38.274 29.0095 38.2531C28.7386 38.2531 28.5303 38.2427 28.3845 38.2219C28.2386 38.1802 28.0824 38.1802 27.9157 38.2219C27.749 38.2427 27.5928 38.2948 27.447 38.3781C27.3011 38.4615 27.1657 38.5552 27.0407 38.6594C26.9157 38.8052 26.7907 38.9198 26.6657 39.0031C26.5407 39.0656 26.4365 39.1386 26.3532 39.2219C26.2074 39.4302 26.1032 39.5865 26.0407 39.6906C25.999 39.7948 25.9574 39.9094 25.9157 40.0344C25.8115 40.2011 25.7595 40.3052 25.7595 40.3469C25.7803 40.3886 25.7803 40.4302 25.7595 40.4719C25.7178 40.5552 25.6761 40.6281 25.6345 40.6906C25.6136 40.7531 25.5928 40.8052 25.572 40.8469C25.5095 41.1594 25.4782 41.3573 25.4782 41.4406C25.499 41.524 25.5303 41.6177 25.572 41.7219C25.5928 41.8261 25.5928 41.9198 25.572 42.0031C25.572 42.0865 25.572 42.1802 25.572 42.2844C25.5928 42.4511 25.5928 42.5448 25.572 42.5656C25.5511 42.5865 25.5407 42.6177 25.5407 42.6594C25.4574 42.9094 25.4261 43.1906 25.447 43.5031C25.5303 43.8365 25.572 44.0656 25.572 44.1906C25.572 44.2948 25.5928 44.3886 25.6345 44.4719C25.6553 44.5344 25.6761 44.5865 25.697 44.6281C25.7178 44.6698 25.749 44.7219 25.7907 44.7844C25.8324 44.8469 25.8532 44.9094 25.8532 44.9719C25.8532 45.0344 25.874 45.0865 25.9157 45.1281C25.9574 45.2323 26.0407 45.3677 26.1657 45.5344C26.2907 45.6594 26.3636 45.7531 26.3845 45.8156C26.4261 45.8781 26.4678 45.9615 26.5095 46.0656C26.572 46.149 26.6345 46.2323 26.697 46.3156C26.7386 46.3573 26.7803 46.4094 26.822 46.4719C26.8845 46.5136 26.9261 46.5865 26.947 46.6906C27.1136 46.7323 27.2595 46.7948 27.3845 46.8781C27.5095 46.9615 27.6449 47.0552 27.7907 47.1594C27.9782 47.3261 28.1032 47.4094 28.1657 47.4094C28.249 47.4094 28.3115 47.4302 28.3532 47.4719C28.4574 47.5552 28.5511 47.6073 28.6345 47.6281C28.7178 47.6281 28.8011 47.6386 28.8845 47.6594C29.0095 47.7427 29.0928 47.774 29.1345 47.7531C29.1761 47.7323 29.2178 47.7427 29.2595 47.7844C29.3011 47.8052 29.3636 47.8156 29.447 47.8156C29.5303 47.7948 29.624 47.7948 29.7282 47.8156C29.8115 47.8365 29.9053 47.8573 30.0095 47.8781C30.1345 47.899 30.2595 47.9302 30.3845 47.9719C30.6136 47.9927 30.8428 48.0344 31.072 48.0969C31.2178 48.1594 31.3011 48.1906 31.322 48.1906C31.3428 48.1698 31.374 48.1698 31.4157 48.1906C31.4782 48.2115 31.5407 48.2323 31.6032 48.2531C31.6865 48.2531 31.749 48.274 31.7907 48.3156C32.0824 48.399 32.3115 48.4406 32.4782 48.4406C32.5407 48.4615 32.6032 48.4823 32.6657 48.5031C32.749 48.5031 32.8115 48.5136 32.8532 48.5344C32.9574 48.5969 33.0303 48.6281 33.072 48.6281C33.1345 48.6281 33.1761 48.6386 33.197 48.6594C33.3011 48.6802 33.3949 48.7011 33.4782 48.7219C33.5824 48.7219 33.6761 48.7427 33.7595 48.7844C33.8636 48.8886 33.9261 48.9406 33.947 48.9406C33.9886 48.9198 34.0303 48.9198 34.072 48.9406C34.1761 49.0448 34.2595 49.0969 34.322 49.0969C34.3845 49.0969 34.4365 49.1073 34.4782 49.1281C34.6865 49.2323 34.8845 49.3261 35.072 49.4094C35.2595 49.4719 35.4365 49.5656 35.6032 49.6906C35.874 49.899 36.072 50.0969 36.197 50.2844C36.3428 50.4511 36.4678 50.6177 36.572 50.7844C36.7178 51.0344 36.8011 51.1802 36.822 51.2219C36.9053 51.4302 36.9574 51.5448 36.9782 51.5656C37.0199 51.5865 37.0407 51.6177 37.0407 51.6594C37.0824 51.7427 37.1032 51.8469 37.1032 51.9719C37.124 52.0761 37.1449 52.1802 37.1657 52.2844C37.1865 52.4511 37.197 52.6177 37.197 52.7844C37.2178 52.9511 37.2282 53.149 37.2282 53.3781C37.2074 53.5448 37.197 53.6386 37.197 53.6594C37.2178 53.6802 37.2282 53.7115 37.2282 53.7531C37.2074 53.8573 37.1761 53.9823 37.1345 54.1281C37.1136 54.2531 37.0824 54.3781 37.0407 54.5031C36.9782 54.7531 36.9261 54.9094 36.8845 54.9719C36.8636 55.0344 36.8324 55.1177 36.7907 55.2219C36.6865 55.4511 36.5928 55.6802 36.5095 55.9094C36.4261 56.1386 36.3324 56.3365 36.2282 56.5031C36.124 56.649 36.0511 56.7427 36.0095 56.7844C35.9886 56.8052 35.9574 56.8365 35.9157 56.8781C35.7907 57.0865 35.7282 57.2115 35.7282 57.2531C35.749 57.2948 35.749 57.3365 35.7282 57.3781C35.5615 57.5865 35.4678 57.7219 35.447 57.7844C35.4261 57.8469 35.3949 57.899 35.3532 57.9406C35.1657 58.149 35.0615 58.2636 35.0407 58.2844C35.0199 58.2844 34.999 58.2948 34.9782 58.3156C34.9365 58.3573 34.8949 58.4302 34.8532 58.5344C34.8115 58.6177 34.7595 58.6906 34.697 58.7531C34.5303 58.899 34.4261 58.9823 34.3845 59.0031C34.3636 59.0031 34.3428 59.0136 34.322 59.0344C34.2178 59.1594 34.1449 59.2323 34.1032 59.2531C34.0615 59.274 34.0199 59.3052 33.9782 59.3469L33.697 59.5656C33.4053 59.7115 33.197 59.8365 33.072 59.9406C32.7803 60.0865 32.572 60.1906 32.447 60.2531C32.322 60.2948 32.197 60.3365 32.072 60.3781C31.9678 60.4198 31.8636 60.4719 31.7595 60.5344C31.6761 60.5761 31.572 60.6177 31.447 60.6594C31.322 60.7427 31.1865 60.8052 31.0407 60.8469C30.8949 60.9094 30.7386 60.9719 30.572 61.0344C30.4678 61.0761 30.3115 61.1177 30.1032 61.1594C29.9157 61.2219 29.7386 61.2636 29.572 61.2844C29.322 61.3261 29.0511 61.3677 28.7595 61.4094C28.4886 61.4511 28.2178 61.4511 27.947 61.4094C27.8845 61.4302 27.8011 61.4406 27.697 61.4406C27.6136 61.4406 27.5095 61.4302 27.3845 61.4094C27.2803 61.3886 27.1657 61.3677 27.0407 61.3469C26.9365 61.3261 26.8636 61.3052 26.822 61.2844C26.6761 61.2011 26.5615 61.149 26.4782 61.1281C26.3949 61.1281 26.3011 61.1073 26.197 61.0656C26.1136 61.024 26.0303 60.9823 25.947 60.9406C25.8636 60.9198 25.7699 60.8886 25.6657 60.8469C25.499 60.7427 25.3845 60.6802 25.322 60.6594C25.2803 60.6594 25.2386 60.649 25.197 60.6281C25.0511 60.4615 24.947 60.3781 24.8845 60.3781C24.8428 60.3781 24.8011 60.3573 24.7595 60.3156C24.7178 60.274 24.6657 60.2219 24.6032 60.1594C24.5615 60.0969 24.5095 60.0448 24.447 60.0031C24.3845 59.9615 24.322 59.9406 24.2595 59.9406C24.2178 59.9198 24.1761 59.8781 24.1345 59.8156C24.0511 59.7948 23.947 59.7011 23.822 59.5344C23.7178 59.3886 23.6553 59.3156 23.6345 59.3156C23.6136 59.3156 23.5928 59.2948 23.572 59.2531C23.4053 59.1073 23.3115 59.0136 23.2907 58.9719C23.2907 58.9302 23.2699 58.8886 23.2282 58.8469C23.1449 58.7427 23.0824 58.6177 23.0407 58.4719C22.9782 58.3469 22.9261 58.2427 22.8845 58.1594C22.8428 58.0969 22.8011 58.024 22.7595 57.9406C22.7178 57.8573 22.6657 57.7844 22.6032 57.7219C22.499 57.5761 22.4365 57.5031 22.4157 57.5031C22.3949 57.4823 22.374 57.4511 22.3532 57.4094C22.2282 57.2636 22.1761 57.1698 22.197 57.1281C22.2178 57.0865 22.2074 57.0448 22.1657 57.0031C22.1032 56.8781 22.0511 56.7948 22.0095 56.7531C21.9886 56.7115 21.9782 56.6698 21.9782 56.6281C21.9365 56.399 21.9365 56.1802 21.9782 55.9719C22.0199 55.7636 22.072 55.5761 22.1345 55.4094C22.1761 55.3261 22.2074 55.2531 22.2282 55.1906C22.2699 55.1073 22.3115 55.024 22.3532 54.9406C22.4157 54.7948 22.4886 54.649 22.572 54.5031C22.6553 54.3365 22.7178 54.1698 22.7595 54.0031C22.8428 53.9198 22.9261 53.8469 23.0095 53.7844C23.0928 53.7011 23.1761 53.6073 23.2595 53.5031C23.3428 53.4198 23.4157 53.3261 23.4782 53.2219C23.5615 53.1177 23.6553 53.024 23.7595 52.9406C23.822 52.899 23.8949 52.8573 23.9782 52.8156C24.0824 52.774 24.1657 52.7219 24.2282 52.6594C24.2907 52.5969 24.3532 52.5448 24.4157 52.5031C24.4782 52.4615 24.5511 52.4094 24.6345 52.3469C24.7803 52.2427 24.8845 52.1698 24.947 52.1281C25.0303 52.0865 25.1553 52.0448 25.322 52.0031C25.6345 51.9406 25.8324 51.8886 25.9157 51.8469C26.0199 51.7844 26.1032 51.7531 26.1657 51.7531C26.2074 51.7323 26.2595 51.7323 26.322 51.7531C26.4053 51.7531 26.4782 51.7531 26.5407 51.7531C26.6657 51.7323 26.8115 51.7219 26.9782 51.7219C27.1449 51.7219 27.2803 51.7427 27.3845 51.7844C27.6553 51.9719 27.8115 52.1073 27.8532 52.1906C28.0407 52.4198 28.1657 52.5761 28.2282 52.6594C28.2907 52.7219 28.3428 52.7948 28.3845 52.8781C28.5095 53.024 28.5824 53.1386 28.6032 53.2219C28.624 53.2844 28.6553 53.3365 28.697 53.3781C28.8428 53.5448 28.9157 53.6802 28.9157 53.7844C28.9365 53.8677 28.9678 53.9511 29.0095 54.0344C29.0303 54.1177 29.0511 54.1906 29.072 54.2531C29.0928 54.3156 29.1032 54.3781 29.1032 54.4406C29.1449 54.8365 29.1449 55.1802 29.1032 55.4719C29.0407 55.6802 29.0095 55.8156 29.0095 55.8781C29.0095 55.9198 29.0095 55.9615 29.0095 56.0031C28.8636 56.2323 28.7699 56.3781 28.7282 56.4406C28.7074 56.4823 28.6449 56.5552 28.5407 56.6594C28.4782 56.7219 28.4157 56.7844 28.3532 56.8469C28.2907 56.8886 28.2178 56.9511 28.1345 57.0344C28.1136 57.0552 28.072 57.0969 28.0095 57.1594C27.947 57.2219 27.8845 57.2636 27.822 57.2844C27.7386 57.3261 27.572 57.3469 27.322 57.3469C27.072 57.3261 26.9157 57.3052 26.8532 57.2844C26.6449 57.1802 26.5303 57.1281 26.5095 57.1281C26.4886 57.1281 26.4574 57.1177 26.4157 57.0969C26.249 56.9511 26.1657 56.8886 26.1657 56.9094C26.1657 56.9094 26.1553 56.899 26.1345 56.8781C25.947 56.7115 25.8532 56.5865 25.8532 56.5031C25.8532 56.399 25.8428 56.3052 25.822 56.2219C25.822 56.1177 25.822 56.0448 25.822 56.0031C25.8428 55.9406 25.874 55.8573 25.9157 55.7531C25.9574 55.6906 26.0095 55.6073 26.072 55.5031C26.1345 55.399 26.2178 55.3261 26.322 55.2844C26.5928 55.1594 26.7803 55.1281 26.8845 55.1906C27.0095 55.2531 27.1657 55.2844 27.3532 55.2844C27.3115 55.4302 27.249 55.5344 27.1657 55.5969C27.1032 55.6594 27.0199 55.7219 26.9157 55.7844C26.8115 55.8677 26.697 55.9302 26.572 55.9719C26.4678 56.0136 26.4365 56.1177 26.4782 56.2844C26.8532 56.4927 27.1032 56.5865 27.2282 56.5656C27.3532 56.524 27.5199 56.4615 27.7282 56.3781C27.8324 56.3365 27.9261 56.3052 28.0095 56.2844C28.1136 56.2427 28.2074 56.2011 28.2907 56.1594C28.3949 55.8052 28.4261 55.5031 28.3845 55.2531C28.3428 55.0031 28.2803 54.7323 28.197 54.4406C28.1136 54.149 28.0407 53.9719 27.9782 53.9094C27.9365 53.8469 27.9157 53.7636 27.9157 53.6594C27.8532 53.5761 27.7699 53.524 27.6657 53.5031C27.5824 53.4615 27.499 53.4198 27.4157 53.3781C27.3532 53.2948 27.2699 53.2323 27.1657 53.1906C27.0824 53.1281 26.9886 53.0969 26.8845 53.0969C26.7803 53.0969 26.6553 53.149 26.5095 53.2531L26.197 53.4094C26.0303 53.4927 25.9365 53.5448 25.9157 53.5656C25.9157 53.5865 25.8949 53.6073 25.8532 53.6281C25.5824 53.7948 25.4053 53.9302 25.322 54.0344C25.2595 54.1386 25.1865 54.2323 25.1032 54.3156C25.0199 54.3781 24.9365 54.4615 24.8532 54.5656C24.7907 54.6698 24.7178 54.7636 24.6345 54.8469C24.4886 54.9302 24.3949 55.0031 24.3532 55.0656C24.3115 55.1281 24.2699 55.2011 24.2282 55.2844C24.2074 55.3261 24.1761 55.3886 24.1345 55.4719C24.0928 55.5552 24.0615 55.6386 24.0407 55.7219C24.0407 55.7636 24.0407 55.8261 24.0407 55.9094C24.0615 55.9927 24.0615 56.0761 24.0407 56.1594C24.0407 56.3261 24.0407 56.4615 24.0407 56.5656C24.0407 56.649 24.072 56.7844 24.1345 56.9719C24.197 57.1594 24.2282 57.2948 24.2282 57.3781C24.3532 57.4823 24.4157 57.5656 24.4157 57.6281C24.4157 57.6698 24.4365 57.7115 24.4782 57.7531C24.5615 57.899 24.6449 58.0136 24.7282 58.0969C24.8115 58.1594 24.9053 58.2323 25.0095 58.3156C25.197 58.5031 25.3428 58.6802 25.447 58.8469C25.572 58.9927 25.7074 59.1177 25.8532 59.2219C26.0407 59.3469 26.2178 59.4406 26.3845 59.5031C26.572 59.5656 26.8115 59.5761 27.1032 59.5344C27.2699 59.4927 27.4678 59.4719 27.697 59.4719C27.9261 59.4719 28.124 59.4511 28.2907 59.4094C28.3949 59.3886 28.499 59.3573 28.6032 59.3156C28.7282 59.274 28.8636 59.2323 29.0095 59.1906C29.0928 59.149 29.1761 59.1281 29.2595 59.1281C29.3636 59.1281 29.4782 59.1073 29.6032 59.0656C29.749 59.024 29.8949 58.9823 30.0407 58.9406C30.2074 58.899 30.3845 58.8781 30.572 58.8781C30.697 58.7948 30.8324 58.7323 30.9782 58.6906C31.124 58.649 31.2595 58.5865 31.3845 58.5031C31.447 58.4615 31.5095 58.4302 31.572 58.4094C31.6553 58.3886 31.7282 58.3573 31.7907 58.3156L32.1657 58.1281C32.5407 57.899 32.8428 57.5448 33.072 57.0656C33.1136 56.9615 33.1553 56.8677 33.197 56.7844C33.2386 56.7011 33.2803 56.6073 33.322 56.5031C33.447 56.274 33.5303 56.0969 33.572 55.9719C33.6136 55.8886 33.6657 55.8052 33.7282 55.7219C33.7907 55.6177 33.8324 55.5136 33.8532 55.4094C33.8532 55.3052 33.8324 55.2115 33.7907 55.1281C33.7699 55.024 33.7595 54.9094 33.7595 54.7844C33.7595 54.7011 33.7595 54.6177 33.7595 54.5344C33.7803 54.4302 33.7907 54.3261 33.7907 54.2219V53.6594C33.7907 53.4094 33.8115 53.2011 33.8532 53.0344C33.8949 52.8469 33.9053 52.6386 33.8845 52.4094C33.8636 52.2427 33.822 52.0761 33.7595 51.9094C33.7178 51.7427 33.6657 51.5761 33.6032 51.4094C33.5199 51.2844 33.4574 51.2219 33.4157 51.2219C33.3949 51.2011 33.3845 51.1698 33.3845 51.1281C33.2386 50.899 33.1449 50.7844 33.1032 50.7844C33.0824 50.7844 33.0615 50.774 33.0407 50.7531C32.8324 50.6281 32.7178 50.5136 32.697 50.4094C32.4678 50.3677 32.3428 50.3365 32.322 50.3156C32.3011 50.2948 32.2699 50.2844 32.2282 50.2844C31.9782 50.1802 31.7907 50.1073 31.6657 50.0656C31.5615 50.024 31.447 49.9823 31.322 49.9406C31.0303 49.8781 30.8532 49.8469 30.7907 49.8469C30.7282 49.8261 30.6449 49.7948 30.5407 49.7531C30.4365 49.6698 30.3428 49.6281 30.2595 49.6281C30.1761 49.6281 30.1136 49.6177 30.072 49.5969C29.8636 49.5344 29.7386 49.4927 29.697 49.4719C29.6761 49.4511 29.6449 49.4406 29.6032 49.4406C29.3532 49.3781 29.2282 49.3469 29.2282 49.3469C29.0407 49.2636 28.874 49.2219 28.7282 49.2219C28.6032 49.2011 28.4678 49.1698 28.322 49.1281C28.1136 49.0656 27.947 49.0344 27.822 49.0344C27.6136 48.9511 27.4574 48.899 27.3532 48.8781C27.249 48.8365 27.1553 48.8261 27.072 48.8469C26.9886 48.8469 26.9053 48.8261 26.822 48.7844C26.572 48.6594 26.3636 48.5761 26.197 48.5344C26.1136 48.4927 26.0303 48.4406 25.947 48.3781C25.8845 48.3156 25.8115 48.2636 25.7282 48.2219C25.4782 48.1386 25.3532 48.0969 25.3532 48.0969C25.3532 48.0761 25.3324 48.0552 25.2907 48.0344C25.2282 47.9927 25.1657 47.9511 25.1032 47.9094C25.0615 47.8677 24.9886 47.8261 24.8845 47.7844C24.8011 47.7219 24.7178 47.6594 24.6345 47.5969C24.5511 47.5136 24.4886 47.4198 24.447 47.3156L24.1657 47.0656C23.9365 46.899 23.8011 46.7948 23.7595 46.7531C23.7386 46.6906 23.6761 46.6386 23.572 46.5969C23.5095 46.4302 23.4365 46.2844 23.3532 46.1594C23.2907 46.0344 23.2386 45.9094 23.197 45.7844C23.1345 45.6802 23.0824 45.5761 23.0407 45.4719C22.999 45.4302 22.9678 45.3677 22.947 45.2844C22.947 45.1802 22.9261 45.0969 22.8845 45.0344C22.8428 44.9719 22.8115 44.899 22.7907 44.8156C22.7699 44.7115 22.7386 44.6177 22.697 44.5344C22.6345 44.3261 22.5928 44.2219 22.572 44.2219C22.572 44.2219 22.572 44.2115 22.572 44.1906C22.4678 43.9198 22.3845 43.7323 22.322 43.6281C22.2803 43.524 22.2386 43.4198 22.197 43.3156C22.1761 43.2323 22.1657 43.149 22.1657 43.0656C22.1657 42.9823 22.1657 42.899 22.1657 42.8156C22.1449 42.6698 22.124 42.5552 22.1032 42.4719C22.1032 42.3677 22.124 42.2427 22.1657 42.0969C22.2074 41.9719 22.249 41.8469 22.2907 41.7219C22.3324 41.5761 22.374 41.4302 22.4157 41.2844C22.5199 40.9094 22.6032 40.6594 22.6657 40.5344C22.7074 40.4302 22.749 40.3365 22.7907 40.2531C22.8324 40.149 22.874 40.0448 22.9157 39.9406C23.0199 39.774 23.072 39.6698 23.072 39.6281C23.1136 39.4615 23.1657 39.3156 23.2282 39.1906C23.3532 38.9615 23.5303 38.7219 23.7595 38.4719C23.8845 38.3469 23.9574 38.274 23.9782 38.2531C24.0199 38.2115 24.0615 38.1698 24.1032 38.1281C24.2282 37.9615 24.3115 37.8677 24.3532 37.8469C24.4157 37.8052 24.4678 37.7531 24.5095 37.6906C24.6761 37.524 24.7699 37.4302 24.7907 37.4094C24.8115 37.3886 24.8532 37.3573 24.9157 37.3156C25.0199 37.2323 25.1136 37.1386 25.197 37.0344C25.3011 36.9302 25.3949 36.8573 25.4782 36.8156C25.7074 36.7531 25.874 36.6906 25.9782 36.6281C26.1032 36.5656 26.2386 36.5136 26.3845 36.4719C26.5928 36.4094 26.7595 36.3886 26.8845 36.4094C27.0095 36.4094 27.1345 36.399 27.2595 36.3781C27.3428 36.3573 27.4157 36.3365 27.4782 36.3156C27.5615 36.274 27.6553 36.2531 27.7595 36.2531C27.8636 36.2323 27.9574 36.2323 28.0407 36.2531C28.1449 36.2531 28.249 36.2531 28.3532 36.2531C28.4574 36.2531 28.5407 36.2427 28.6032 36.2219C28.6865 36.2011 28.7699 36.2011 28.8532 36.2219C28.9782 36.2219 29.124 36.2427 29.2907 36.2844C29.374 36.3052 29.4574 36.3156 29.5407 36.3156C29.624 36.2948 29.697 36.2948 29.7595 36.3156C30.0511 36.4198 30.249 36.4823 30.3532 36.5031C30.4574 36.5448 30.572 36.5969 30.697 36.6594C30.8428 36.7011 30.9678 36.7427 31.072 36.7844C31.3011 36.8886 31.4678 36.9511 31.572 36.9719C31.6761 36.9927 31.749 37.0136 31.7907 37.0344C31.9365 37.0969 32.072 37.1698 32.197 37.2531C32.322 37.3156 32.4574 37.3886 32.6032 37.4719C32.7074 37.5136 32.7803 37.5552 32.822 37.5969C32.8636 37.6177 32.9261 37.649 33.0095 37.6906C33.1345 37.7531 33.2282 37.8052 33.2907 37.8469C33.3532 37.8677 33.4261 37.899 33.5095 37.9406C33.572 38.024 33.7178 38.0761 33.947 38.0969C34.2595 38.1594 34.5407 38.1906 34.7907 38.1906C35.0615 38.1698 35.2595 38.1386 35.3845 38.0969C35.572 38.0344 35.7178 37.9406 35.822 37.8156C35.9261 37.6906 36.0407 37.5865 36.1657 37.5031C36.2282 37.3365 36.3115 37.2011 36.4157 37.0969C36.5407 36.9927 36.6553 36.8886 36.7595 36.7844C36.8011 36.7219 36.8428 36.6698 36.8845 36.6281C36.9261 36.5656 36.9782 36.5031 37.0407 36.4406C37.1865 36.2948 37.2699 36.2011 37.2907 36.1594C37.3115 36.0969 37.3532 36.0552 37.4157 36.0344H37.4782Z" fill="black"/>
</g>
<path d="M9.35516 22.2169C9.82971 21.5903 10.5566 21.3446 11.2718 21.0174C11.4732 20.9253 14.1469 19.6953 14.1469 19.8608C14.1469 20.2774 12.3427 23.6141 13.7575 23.0166C14.1242 22.8617 18.4352 20.7695 18.5043 21.1317C18.8525 22.9581 18.3948 23.6005 20.6156 22.274C22.7676 20.9886 21.9882 21.4742 22.3227 23.3878C22.479 24.2821 24.1794 21.3314 24.1794 22.8166C24.1794 23.8979 24.0435 24.967 23.9698 26.0438C23.8798 27.3594 24.6888 26.2632 25.2875 25.801C26.5611 24.8178 27.1408 24.5686 28.5219 24.1018C29.538 23.7583 32.5349 21.3108 32.5349 23.1451C32.5349 23.5321 32.3933 24.2333 32.5649 24.6016C32.6884 24.8666 35.4016 23.6348 35.5896 23.5592C36.0683 23.3668 37.5186 22.3992 38.0753 22.4454C38.3421 22.4675 38.1951 24.7297 38.1951 24.9014C38.1951 25.1314 37.9751 26.7428 38.5845 26.5864C39.9567 26.2341 41.3474 24.9689 42.4777 24.1875C44.3536 22.8905 42.5164 26.2437 43.7954 26.2437C45.4628 26.2437 46.2228 24.5401 46.2811 26.9291C46.3111 28.1575 50.5377 24.7434 50.8632 23.5021" stroke="#E1DED4" stroke-width="16" stroke-linecap="round"/>
<path d="M14.5946 28.6701L9.72974 34.2666L14.5946 38.4639L21.0811 34.2666L14.5946 28.6701Z" fill="white" stroke="black"/>
<path d="M44.8649 33.3093L40 38.9057L44.8649 43.1031L51.3514 38.9057L44.8649 33.3093Z" fill="white" stroke="black"/>
<defs>
<filter id="filter0_f_18_58" x="4.37567" y="17.8643" width="53.101" height="59.6357" filterUnits="userSpaceOnUse" color-interpolation-filters="sRGB">
<feFlood flood-opacity="0" result="BackgroundImageFix"/>
<feBlend mode="normal" in="SourceGraphic" in2="BackgroundImageFix" result="shape"/>
<feGaussianBlur stdDeviation="2" result="effect1_foregroundBlur_18_58"/>
</filter>
<filter id="filter1_d_18_58" x="17.9157" y="36.0344" width="23.75" height="33.4375" filterUnits="userSpaceOnUse" color-interpolation-filters="sRGB">
<feFlood flood-opacity="0" result="BackgroundImageFix"/>
<feColorMatrix in="SourceAlpha" type="matrix" values="0 0 0 0 0 0 0 0 0 0 0 0 0 0 0 0 0 0 127 0" result="hardAlpha"/>
<feOffset dy="4"/>
<feGaussianBlur stdDeviation="2"/>
<feComposite in2="hardAlpha" operator="out"/>
<feColorMatrix type="matrix" values="0 0 0 0 0 0 0 0 0 0 0 0 0 0 0 0 0 0 0.5 0"/>
<feBlend mode="normal" in2="BackgroundImageFix" result="effect1_dropShadow_18_58"/>
<feBlend mode="normal" in="SourceGraphic" in2="effect1_dropShadow_18_58" result="shape"/>
</filter>
</defs>
</svg>
