<svg width="130" height="160" viewBox="0 0 148 119" fill="none" xmlns="http://www.w3.org/2000/svg">
<g filter="url(#filter0_f_32_345)">
<path d="M16.42 114V27.0631L45.155 39.7323L57.9831 27.0631L75.4293 39.7323L98.0068 27.0631V114H16.42Z" fill="#F2B705"/>
<path d="M16.42 114V27.0631L45.155 39.7323L57.9831 27.0631L75.4293 39.7323L98.0068 27.0631V114H16.42Z" stroke="black"/>
</g>
<path d="M71.8375 92.1566L62.6012 101.643L71.8374 108.758L84.1525 101.643L71.8375 92.1566Z" fill="white" stroke="black"/>
<path d="M16.42 103.078L33.3531 88.6616L48.2337 103.078L33.3531 113.126L16.42 103.078Z" fill="white" stroke="black"/>
<g id='letter_s' filter="url(#filter1_d_32_345)">
<path d="M71.7112 50.7961C71.9612 50.8794 72.0237 51.0461 71.8987 51.2961C71.8154 51.5461 71.7529 51.7752 71.7112 51.9836C71.6279 52.2752 71.5862 52.5877 71.5862 52.9211C71.6279 53.2127 71.6279 53.5044 71.5862 53.7961C71.5446 54.3377 71.5029 54.9002 71.4612 55.4836C71.4612 56.0669 71.3987 56.6294 71.2737 57.1711C71.2321 57.4211 71.1696 57.6711 71.0862 57.9211C71.0029 58.1294 70.9196 58.3586 70.8362 58.6086C70.7946 58.8169 70.7737 59.0461 70.7737 59.2961C70.7737 59.5461 70.7321 59.7752 70.6487 59.9836C70.5654 60.4002 70.5029 60.8169 70.4612 61.2336C70.4196 61.6502 70.3571 62.0877 70.2737 62.5461C70.2321 62.7544 70.1904 62.9836 70.1487 63.2336C70.1487 63.4836 70.1279 63.7336 70.0862 63.9836C70.0446 64.1919 70.0029 64.4002 69.9612 64.6086C69.9196 64.8169 69.8571 65.0252 69.7737 65.2336C69.6904 65.6502 69.6071 66.0669 69.5237 66.4836C69.4404 66.9002 69.3571 67.3377 69.2737 67.7961C69.1071 68.2544 69.0029 68.5461 68.9612 68.6711C68.9612 68.7544 68.9196 68.8169 68.8362 68.8586C68.6279 68.8586 68.5446 68.7752 68.5862 68.6086C68.6279 68.4002 68.6279 68.1919 68.5862 67.9836C68.5446 67.8169 68.5029 67.6711 68.4612 67.5461C68.4612 67.4211 68.4612 67.2752 68.4612 67.1086C68.4196 66.9419 68.3987 66.7961 68.3987 66.6711C68.3987 66.5044 68.3779 66.3377 68.3362 66.1711C68.3362 66.0461 68.3362 65.9211 68.3362 65.7961C68.3362 65.6294 68.3154 65.4836 68.2737 65.3586C68.2321 65.1919 68.1696 65.0461 68.0862 64.9211C68.0029 64.7544 67.9196 64.5669 67.8362 64.3586C67.7529 64.1502 67.6696 63.9419 67.5862 63.7336C67.5029 63.4836 67.4196 63.2544 67.3362 63.0461C67.2529 62.9211 67.1487 62.7961 67.0237 62.6711C66.9404 62.5461 66.8571 62.4002 66.7737 62.2336C66.6487 61.8169 66.5654 61.5877 66.5237 61.5461C66.4821 61.5044 66.4404 61.4419 66.3987 61.3586C66.3154 61.1502 66.2737 60.9627 66.2737 60.7961C66.2737 60.6294 66.2321 60.4627 66.1487 60.2961C66.0237 60.1294 65.9612 60.0044 65.9612 59.9211C65.9612 59.7961 65.9196 59.6919 65.8362 59.6086C65.3362 59.1086 64.9612 58.7752 64.7112 58.6086C64.3362 58.2752 64.0862 58.0877 63.9612 58.0461C63.8779 58.0044 63.7529 57.9419 63.5862 57.8586C63.4196 57.7752 63.1904 57.6919 62.8987 57.6086C62.6071 57.4836 62.3571 57.3794 62.1487 57.2961C61.9821 57.1294 61.8362 57.0669 61.7112 57.1086C61.5862 57.1086 61.4821 57.0877 61.3987 57.0461C61.1904 56.9627 60.9821 56.8794 60.7737 56.7961C60.5654 56.6711 60.3571 56.5877 60.1487 56.5461C59.9404 56.4627 59.7529 56.4211 59.5862 56.4211C59.4196 56.4211 59.2529 56.4002 59.0862 56.3586C58.8362 56.2752 58.5862 56.2127 58.3362 56.1711C58.0862 56.0877 57.8571 56.0044 57.6487 55.9211C57.5237 55.8377 57.3779 55.7752 57.2112 55.7336C57.0862 55.6502 56.9821 55.5877 56.8987 55.5461C56.7321 55.5877 56.5862 55.5877 56.4612 55.5461C56.3779 55.5044 56.2946 55.4836 56.2112 55.4836C56.0029 55.4419 55.7529 55.4002 55.4612 55.3586C55.2112 55.3169 54.9821 55.2752 54.7737 55.2336C54.2321 55.2336 53.8154 55.2127 53.5237 55.1711C53.2321 55.0877 52.9196 55.0877 52.5862 55.1711C52.2529 55.2127 51.9404 55.3169 51.6487 55.4836C51.3571 55.6502 51.0862 55.8377 50.8362 56.0461C50.5862 56.3377 50.3362 56.5669 50.0862 56.7336C49.8362 56.8586 49.6279 57.0044 49.4612 57.1711C49.1696 57.5877 48.9612 57.9002 48.8362 58.1086C48.7529 58.3169 48.6696 58.5461 48.5862 58.7961C48.3779 59.1294 48.2737 59.3377 48.2737 59.4211C48.3154 59.5044 48.3154 59.5877 48.2737 59.6711C48.1904 59.8377 48.1071 59.9836 48.0237 60.1086C47.9821 60.2336 47.9404 60.3377 47.8987 60.4211C47.7737 61.0461 47.7112 61.4419 47.7112 61.6086C47.7529 61.7752 47.8154 61.9627 47.8987 62.1711C47.9404 62.3794 47.9404 62.5669 47.8987 62.7336C47.8987 62.9002 47.8987 63.0877 47.8987 63.2961C47.9404 63.6294 47.9404 63.8169 47.8987 63.8586C47.8571 63.9002 47.8362 63.9627 47.8362 64.0461C47.6696 64.5461 47.6071 65.1086 47.6487 65.7336C47.8154 66.4002 47.8987 66.8586 47.8987 67.1086C47.8987 67.3169 47.9404 67.5044 48.0237 67.6711C48.0654 67.7961 48.1071 67.9002 48.1487 67.9836C48.1904 68.0669 48.2529 68.1711 48.3362 68.2961C48.4196 68.4211 48.4612 68.5461 48.4612 68.6711C48.4612 68.7961 48.5029 68.9002 48.5862 68.9836C48.6696 69.1919 48.8362 69.4627 49.0862 69.7961C49.3362 70.0461 49.4821 70.2336 49.5237 70.3586C49.6071 70.4836 49.6904 70.6502 49.7737 70.8586C49.8987 71.0252 50.0237 71.1919 50.1487 71.3586C50.2321 71.4419 50.3154 71.5461 50.3987 71.6711C50.5237 71.7544 50.6071 71.9002 50.6487 72.1086C50.9821 72.1919 51.2737 72.3169 51.5237 72.4836C51.7737 72.6502 52.0446 72.8377 52.3362 73.0461C52.7112 73.3794 52.9612 73.5461 53.0862 73.5461C53.2529 73.5461 53.3779 73.5877 53.4612 73.6711C53.6696 73.8377 53.8571 73.9419 54.0237 73.9836C54.1904 73.9836 54.3571 74.0044 54.5237 74.0461C54.7737 74.2127 54.9404 74.2752 55.0237 74.2336C55.1071 74.1919 55.1904 74.2127 55.2737 74.2961C55.3571 74.3377 55.4821 74.3586 55.6487 74.3586C55.8154 74.3169 56.0029 74.3169 56.2112 74.3586C56.3779 74.4002 56.5654 74.4419 56.7737 74.4836C57.0237 74.5252 57.2737 74.5877 57.5237 74.6711C57.9821 74.7127 58.4404 74.7961 58.8987 74.9211C59.1904 75.0461 59.3571 75.1086 59.3987 75.1086C59.4404 75.0669 59.5029 75.0669 59.5862 75.1086C59.7112 75.1502 59.8362 75.1919 59.9612 75.2336C60.1279 75.2336 60.2529 75.2752 60.3362 75.3586C60.9196 75.5252 61.3779 75.6086 61.7112 75.6086C61.8362 75.6502 61.9612 75.6919 62.0862 75.7336C62.2529 75.7336 62.3779 75.7544 62.4612 75.7961C62.6696 75.9211 62.8154 75.9836 62.8987 75.9836C63.0237 75.9836 63.1071 76.0044 63.1487 76.0461C63.3571 76.0877 63.5446 76.1294 63.7112 76.1711C63.9196 76.1711 64.1071 76.2127 64.2737 76.2961C64.4821 76.5044 64.6071 76.6086 64.6487 76.6086C64.7321 76.5669 64.8154 76.5669 64.8987 76.6086C65.1071 76.8169 65.2737 76.9211 65.3987 76.9211C65.5237 76.9211 65.6279 76.9419 65.7112 76.9836C66.1279 77.1919 66.5237 77.3794 66.8987 77.5461C67.2737 77.6711 67.6279 77.8586 67.9612 78.1086C68.5029 78.5252 68.8987 78.9211 69.1487 79.2961C69.4404 79.6294 69.6904 79.9627 69.8987 80.2961C70.1904 80.7961 70.3571 81.0877 70.3987 81.1711C70.5654 81.5877 70.6696 81.8169 70.7112 81.8586C70.7946 81.9002 70.8362 81.9627 70.8362 82.0461C70.9196 82.2127 70.9612 82.4211 70.9612 82.6711C71.0029 82.8794 71.0446 83.0877 71.0862 83.2961C71.1279 83.6294 71.1487 83.9627 71.1487 84.2961C71.1904 84.6294 71.2112 85.0252 71.2112 85.4836C71.1696 85.8169 71.1487 86.0044 71.1487 86.0461C71.1904 86.0877 71.2112 86.1502 71.2112 86.2336C71.1696 86.4419 71.1071 86.6919 71.0237 86.9836C70.9821 87.2336 70.9196 87.4836 70.8362 87.7336C70.7112 88.2336 70.6071 88.5461 70.5237 88.6711C70.4821 88.7961 70.4196 88.9627 70.3362 89.1711C70.1279 89.6294 69.9404 90.0877 69.7737 90.5461C69.6071 91.0044 69.4196 91.4002 69.2112 91.7336C69.0029 92.0252 68.8571 92.2127 68.7737 92.2961C68.7321 92.3377 68.6696 92.4002 68.5862 92.4836C68.3362 92.9002 68.2112 93.1502 68.2112 93.2336C68.2529 93.3169 68.2529 93.4002 68.2112 93.4836C67.8779 93.9002 67.6904 94.1711 67.6487 94.2961C67.6071 94.4211 67.5446 94.5252 67.4612 94.6086C67.0862 95.0252 66.8779 95.2544 66.8362 95.2961C66.7946 95.2961 66.7529 95.3169 66.7112 95.3586C66.6279 95.4419 66.5446 95.5877 66.4612 95.7961C66.3779 95.9627 66.2737 96.1086 66.1487 96.2336C65.8154 96.5252 65.6071 96.6919 65.5237 96.7336C65.4821 96.7336 65.4404 96.7544 65.3987 96.7961C65.1904 97.0461 65.0446 97.1919 64.9612 97.2336C64.8779 97.2752 64.7946 97.3377 64.7112 97.4211L64.1487 97.8586C63.5654 98.1502 63.1487 98.4002 62.8987 98.6086C62.3154 98.9002 61.8987 99.1086 61.6487 99.2336C61.3987 99.3169 61.1487 99.4002 60.8987 99.4836C60.6904 99.5669 60.4821 99.6711 60.2737 99.7961C60.1071 99.8794 59.8987 99.9627 59.6487 100.046C59.3987 100.213 59.1279 100.338 58.8362 100.421C58.5446 100.546 58.2321 100.671 57.8987 100.796C57.6904 100.879 57.3779 100.963 56.9612 101.046C56.5862 101.171 56.2321 101.254 55.8987 101.296C55.3987 101.379 54.8571 101.463 54.2737 101.546C53.7321 101.629 53.1904 101.629 52.6487 101.546C52.5237 101.588 52.3571 101.609 52.1487 101.609C51.9821 101.609 51.7737 101.588 51.5237 101.546C51.3154 101.504 51.0862 101.463 50.8362 101.421C50.6279 101.379 50.4821 101.338 50.3987 101.296C50.1071 101.129 49.8779 101.025 49.7112 100.984C49.5446 100.984 49.3571 100.942 49.1487 100.859C48.9821 100.775 48.8154 100.692 48.6487 100.609C48.4821 100.567 48.2946 100.504 48.0862 100.421C47.7529 100.213 47.5237 100.088 47.3987 100.046C47.3154 100.046 47.2321 100.025 47.1487 99.9836C46.8571 99.6502 46.6487 99.4836 46.5237 99.4836C46.4404 99.4836 46.3571 99.4419 46.2737 99.3586C46.1904 99.2752 46.0862 99.1711 45.9612 99.0461C45.8779 98.9211 45.7737 98.8169 45.6487 98.7336C45.5237 98.6502 45.3987 98.6086 45.2737 98.6086C45.1904 98.5669 45.1071 98.4836 45.0237 98.3586C44.8571 98.3169 44.6487 98.1294 44.3987 97.7961C44.1904 97.5044 44.0654 97.3586 44.0237 97.3586C43.9821 97.3586 43.9404 97.3169 43.8987 97.2336C43.5654 96.9419 43.3779 96.7544 43.3362 96.6711C43.3362 96.5877 43.2946 96.5044 43.2112 96.4211C43.0446 96.2127 42.9196 95.9627 42.8362 95.6711C42.7112 95.4211 42.6071 95.2127 42.5237 95.0461C42.4404 94.9211 42.3571 94.7752 42.2737 94.6086C42.1904 94.4419 42.0862 94.2961 41.9612 94.1711C41.7529 93.8794 41.6279 93.7336 41.5862 93.7336C41.5446 93.6919 41.5029 93.6294 41.4612 93.5461C41.2112 93.2544 41.1071 93.0669 41.1487 92.9836C41.1904 92.9002 41.1696 92.8169 41.0862 92.7336C40.9612 92.4836 40.8571 92.3169 40.7737 92.2336C40.7321 92.1502 40.7112 92.0669 40.7112 91.9836C40.6279 91.5252 40.6279 91.0877 40.7112 90.6711C40.7946 90.2544 40.8987 89.8794 41.0237 89.5461C41.1071 89.3794 41.1696 89.2336 41.2112 89.1086C41.2946 88.9419 41.3779 88.7752 41.4612 88.6086C41.5862 88.3169 41.7321 88.0252 41.8987 87.7336C42.0654 87.4002 42.1904 87.0669 42.2737 86.7336C42.4404 86.5669 42.6071 86.4211 42.7737 86.2961C42.9404 86.1294 43.1071 85.9419 43.2737 85.7336C43.4404 85.5669 43.5862 85.3794 43.7112 85.1711C43.8779 84.9627 44.0654 84.7752 44.2737 84.6086C44.3987 84.5252 44.5446 84.4419 44.7112 84.3586C44.9196 84.2752 45.0862 84.1711 45.2112 84.0461C45.3362 83.9211 45.4612 83.8169 45.5862 83.7336C45.7112 83.6502 45.8571 83.5461 46.0237 83.4211C46.3154 83.2127 46.5237 83.0669 46.6487 82.9836C46.8154 82.9002 47.0654 82.8169 47.3987 82.7336C48.0237 82.6086 48.4196 82.5044 48.5862 82.4211C48.7946 82.2961 48.9612 82.2336 49.0862 82.2336C49.1696 82.1919 49.2737 82.1919 49.3987 82.2336C49.5654 82.2336 49.7112 82.2336 49.8362 82.2336C50.0862 82.1919 50.3779 82.1711 50.7112 82.1711C51.0446 82.1711 51.3154 82.2127 51.5237 82.2961C52.0654 82.6711 52.3779 82.9419 52.4612 83.1086C52.8362 83.5669 53.0862 83.8794 53.2112 84.0461C53.3362 84.1711 53.4404 84.3169 53.5237 84.4836C53.7737 84.7752 53.9196 85.0044 53.9612 85.1711C54.0029 85.2961 54.0654 85.4002 54.1487 85.4836C54.4404 85.8169 54.5862 86.0877 54.5862 86.2961C54.6279 86.4627 54.6904 86.6294 54.7737 86.7961C54.8154 86.9627 54.8571 87.1086 54.8987 87.2336C54.9404 87.3586 54.9612 87.4836 54.9612 87.6086C55.0446 88.4002 55.0446 89.0877 54.9612 89.6711C54.8362 90.0877 54.7737 90.3586 54.7737 90.4836C54.7737 90.5669 54.7737 90.6502 54.7737 90.7336C54.4821 91.1919 54.2946 91.4836 54.2112 91.6086C54.1696 91.6919 54.0446 91.8377 53.8362 92.0461C53.7112 92.1711 53.5862 92.2961 53.4612 92.4211C53.3362 92.5044 53.1904 92.6294 53.0237 92.7961C52.9821 92.8377 52.8987 92.9211 52.7737 93.0461C52.6487 93.1711 52.5237 93.2544 52.3987 93.2961C52.2321 93.3794 51.8987 93.4211 51.3987 93.4211C50.8987 93.3794 50.5862 93.3377 50.4612 93.2961C50.0446 93.0877 49.8154 92.9836 49.7737 92.9836C49.7321 92.9836 49.6696 92.9627 49.5862 92.9211C49.2529 92.6294 49.0862 92.5044 49.0862 92.5461C49.0862 92.5461 49.0654 92.5252 49.0237 92.4836C48.6487 92.1502 48.4612 91.9002 48.4612 91.7336C48.4612 91.5252 48.4404 91.3377 48.3987 91.1711C48.3987 90.9627 48.3987 90.8169 48.3987 90.7336C48.4404 90.6086 48.5029 90.4419 48.5862 90.2336C48.6696 90.1086 48.7737 89.9419 48.8987 89.7336C49.0237 89.5252 49.1904 89.3794 49.3987 89.2961C49.9404 89.0461 50.3154 88.9836 50.5237 89.1086C50.7737 89.2336 51.0862 89.2961 51.4612 89.2961C51.3779 89.5877 51.2529 89.7961 51.0862 89.9211C50.9612 90.0461 50.7946 90.1711 50.5862 90.2961C50.3779 90.4627 50.1487 90.5877 49.8987 90.6711C49.6904 90.7544 49.6279 90.9627 49.7112 91.2961C50.4612 91.7127 50.9612 91.9002 51.2112 91.8586C51.4612 91.7752 51.7946 91.6502 52.2112 91.4836C52.4196 91.4002 52.6071 91.3377 52.7737 91.2961C52.9821 91.2127 53.1696 91.1294 53.3362 91.0461C53.5446 90.3377 53.6071 89.7336 53.5237 89.2336C53.4404 88.7336 53.3154 88.1919 53.1487 87.6086C52.9821 87.0252 52.8362 86.6711 52.7112 86.5461C52.6279 86.4211 52.5862 86.2544 52.5862 86.0461C52.4612 85.8794 52.2946 85.7752 52.0862 85.7336C51.9196 85.6502 51.7529 85.5669 51.5862 85.4836C51.4612 85.3169 51.2946 85.1919 51.0862 85.1086C50.9196 84.9836 50.7321 84.9211 50.5237 84.9211C50.3154 84.9211 50.0654 85.0252 49.7737 85.2336L49.1487 85.5461C48.8154 85.7127 48.6279 85.8169 48.5862 85.8586C48.5862 85.9002 48.5446 85.9419 48.4612 85.9836C47.9196 86.3169 47.5654 86.5877 47.3987 86.7961C47.2737 87.0044 47.1279 87.1919 46.9612 87.3586C46.7946 87.4836 46.6279 87.6502 46.4612 87.8586C46.3362 88.0669 46.1904 88.2544 46.0237 88.4211C45.7321 88.5877 45.5446 88.7336 45.4612 88.8586C45.3779 88.9836 45.2946 89.1294 45.2112 89.2961C45.1696 89.3794 45.1071 89.5044 45.0237 89.6711C44.9404 89.8377 44.8779 90.0044 44.8362 90.1711C44.8362 90.2544 44.8362 90.3794 44.8362 90.5461C44.8779 90.7127 44.8779 90.8794 44.8362 91.0461C44.8362 91.3794 44.8362 91.6502 44.8362 91.8586C44.8362 92.0252 44.8987 92.2961 45.0237 92.6711C45.1487 93.0461 45.2112 93.3169 45.2112 93.4836C45.4612 93.6919 45.5862 93.8586 45.5862 93.9836C45.5862 94.0669 45.6279 94.1502 45.7112 94.2336C45.8779 94.5252 46.0446 94.7544 46.2112 94.9211C46.3779 95.0461 46.5654 95.1919 46.7737 95.3586C47.1487 95.7336 47.4404 96.0877 47.6487 96.4211C47.8987 96.7127 48.1696 96.9627 48.4612 97.1711C48.8362 97.4211 49.1904 97.6086 49.5237 97.7336C49.8987 97.8586 50.3779 97.8794 50.9612 97.7961C51.2946 97.7127 51.6904 97.6711 52.1487 97.6711C52.6071 97.6711 53.0029 97.6294 53.3362 97.5461C53.5446 97.5044 53.7529 97.4419 53.9612 97.3586C54.2112 97.2752 54.4821 97.1919 54.7737 97.1086C54.9404 97.0252 55.1071 96.9836 55.2737 96.9836C55.4821 96.9836 55.7112 96.9419 55.9612 96.8586C56.2529 96.7752 56.5446 96.6919 56.8362 96.6086C57.1696 96.5252 57.5237 96.4836 57.8987 96.4836C58.1487 96.3169 58.4196 96.1919 58.7112 96.1086C59.0029 96.0252 59.2737 95.9002 59.5237 95.7336C59.6487 95.6502 59.7737 95.5877 59.8987 95.5461C60.0654 95.5044 60.2112 95.4419 60.3362 95.3586L61.0862 94.9836C61.8362 94.5252 62.4404 93.8169 62.8987 92.8586C62.9821 92.6502 63.0654 92.4627 63.1487 92.2961C63.2321 92.1294 63.3154 91.9419 63.3987 91.7336C63.6487 91.2752 63.8154 90.9211 63.8987 90.6711C63.9821 90.5044 64.0862 90.3377 64.2112 90.1711C64.3362 89.9627 64.4196 89.7544 64.4612 89.5461C64.4612 89.3377 64.4196 89.1502 64.3362 88.9836C64.2946 88.7752 64.2737 88.5461 64.2737 88.2961C64.2737 88.1294 64.2737 87.9627 64.2737 87.7961C64.3154 87.5877 64.3362 87.3794 64.3362 87.1711V86.0461C64.3362 85.5461 64.3779 85.1294 64.4612 84.7961C64.5446 84.4211 64.5654 84.0044 64.5237 83.5461C64.4821 83.2127 64.3987 82.8794 64.2737 82.5461C64.1904 82.2127 64.0862 81.8794 63.9612 81.5461C63.7946 81.2961 63.6696 81.1711 63.5862 81.1711C63.5446 81.1294 63.5237 81.0669 63.5237 80.9836C63.2321 80.5252 63.0446 80.2961 62.9612 80.2961C62.9196 80.2961 62.8779 80.2752 62.8362 80.2336C62.4196 79.9836 62.1904 79.7544 62.1487 79.5461C61.6904 79.4627 61.4404 79.4002 61.3987 79.3586C61.3571 79.3169 61.2946 79.2961 61.2112 79.2961C60.7112 79.0877 60.3362 78.9419 60.0862 78.8586C59.8779 78.7752 59.6487 78.6919 59.3987 78.6086C58.8154 78.4836 58.4612 78.4211 58.3362 78.4211C58.2112 78.3794 58.0446 78.3169 57.8362 78.2336C57.6279 78.0669 57.4404 77.9836 57.2737 77.9836C57.1071 77.9836 56.9821 77.9627 56.8987 77.9211C56.4821 77.7961 56.2321 77.7127 56.1487 77.6711C56.1071 77.6294 56.0446 77.6086 55.9612 77.6086C55.4612 77.4836 55.2112 77.4211 55.2112 77.4211C54.8362 77.2544 54.5029 77.1711 54.2112 77.1711C53.9612 77.1294 53.6904 77.0669 53.3987 76.9836C52.9821 76.8586 52.6487 76.7961 52.3987 76.7961C51.9821 76.6294 51.6696 76.5252 51.4612 76.4836C51.2529 76.4002 51.0654 76.3794 50.8987 76.4211C50.7321 76.4211 50.5654 76.3794 50.3987 76.2961C49.8987 76.0461 49.4821 75.8794 49.1487 75.7961C48.9821 75.7127 48.8154 75.6086 48.6487 75.4836C48.5237 75.3586 48.3779 75.2544 48.2112 75.1711C47.7112 75.0044 47.4612 74.9211 47.4612 74.9211C47.4612 74.8794 47.4196 74.8377 47.3362 74.7961C47.2112 74.7127 47.0862 74.6294 46.9612 74.5461C46.8779 74.4627 46.7321 74.3794 46.5237 74.2961C46.3571 74.1711 46.1904 74.0461 46.0237 73.9211C45.8571 73.7544 45.7321 73.5669 45.6487 73.3586L45.0862 72.8586C44.6279 72.5252 44.3571 72.3169 44.2737 72.2336C44.2321 72.1086 44.1071 72.0044 43.8987 71.9211C43.7737 71.5877 43.6279 71.2961 43.4612 71.0461C43.3362 70.7961 43.2321 70.5461 43.1487 70.2961C43.0237 70.0877 42.9196 69.8794 42.8362 69.6711C42.7529 69.5877 42.6904 69.4627 42.6487 69.2961C42.6487 69.0877 42.6071 68.9211 42.5237 68.7961C42.4404 68.6711 42.3779 68.5252 42.3362 68.3586C42.2946 68.1502 42.2321 67.9627 42.1487 67.7961C42.0237 67.3794 41.9404 67.1711 41.8987 67.1711C41.8987 67.1711 41.8987 67.1502 41.8987 67.1086C41.6904 66.5669 41.5237 66.1919 41.3987 65.9836C41.3154 65.7752 41.2321 65.5669 41.1487 65.3586C41.1071 65.1919 41.0862 65.0252 41.0862 64.8586C41.0862 64.6919 41.0862 64.5252 41.0862 64.3586C41.0446 64.0669 41.0029 63.8377 40.9612 63.6711C40.9612 63.4627 41.0029 63.2127 41.0862 62.9211C41.1696 62.6711 41.2529 62.4211 41.3362 62.1711C41.4196 61.8794 41.5029 61.5877 41.5862 61.2961C41.7946 60.5461 41.9612 60.0461 42.0862 59.7961C42.1696 59.5877 42.2529 59.4002 42.3362 59.2336C42.4196 59.0252 42.5029 58.8169 42.5862 58.6086C42.7946 58.2752 42.8987 58.0669 42.8987 57.9836C42.9821 57.6502 43.0862 57.3586 43.2112 57.1086C43.4612 56.6502 43.8154 56.1711 44.2737 55.6711C44.5237 55.4211 44.6696 55.2752 44.7112 55.2336C44.7946 55.1502 44.8779 55.0669 44.9612 54.9836C45.2112 54.6502 45.3779 54.4627 45.4612 54.4211C45.5862 54.3377 45.6904 54.2336 45.7737 54.1086C46.1071 53.7752 46.2946 53.5877 46.3362 53.5461C46.3779 53.5044 46.4612 53.4419 46.5862 53.3586C46.7946 53.1919 46.9821 53.0044 47.1487 52.7961C47.3571 52.5877 47.5446 52.4419 47.7112 52.3586C48.1696 52.2336 48.5029 52.1086 48.7112 51.9836C48.9612 51.8586 49.2321 51.7544 49.5237 51.6711C49.9404 51.5461 50.2737 51.5044 50.5237 51.5461C50.7737 51.5461 51.0237 51.5252 51.2737 51.4836C51.4404 51.4419 51.5862 51.4002 51.7112 51.3586C51.8779 51.2752 52.0654 51.2336 52.2737 51.2336C52.4821 51.1919 52.6696 51.1919 52.8362 51.2336C53.0446 51.2336 53.2529 51.2336 53.4612 51.2336C53.6696 51.2336 53.8362 51.2127 53.9612 51.1711C54.1279 51.1294 54.2946 51.1294 54.4612 51.1711C54.7112 51.1711 55.0029 51.2127 55.3362 51.2961C55.5029 51.3377 55.6696 51.3586 55.8362 51.3586C56.0029 51.3169 56.1487 51.3169 56.2737 51.3586C56.8571 51.5669 57.2529 51.6919 57.4612 51.7336C57.6696 51.8169 57.8987 51.9211 58.1487 52.0461C58.4404 52.1294 58.6904 52.2127 58.8987 52.2961C59.3571 52.5044 59.6904 52.6294 59.8987 52.6711C60.1071 52.7127 60.2529 52.7544 60.3362 52.7961C60.6279 52.9211 60.8987 53.0669 61.1487 53.2336C61.3987 53.3586 61.6696 53.5044 61.9612 53.6711C62.1696 53.7544 62.3154 53.8377 62.3987 53.9211C62.4821 53.9627 62.6071 54.0252 62.7737 54.1086C63.0237 54.2336 63.2112 54.3377 63.3362 54.4211C63.4612 54.4627 63.6071 54.5252 63.7737 54.6086C63.8987 54.7752 64.1904 54.8794 64.6487 54.9211C65.2737 55.0461 65.8362 55.1086 66.3362 55.1086C66.8779 55.0669 67.2737 55.0044 67.5237 54.9211C67.8987 54.7961 68.1904 54.6086 68.3987 54.3586C68.6071 54.1086 68.8362 53.9002 69.0862 53.7336C69.2112 53.4002 69.3779 53.1294 69.5862 52.9211C69.8362 52.7127 70.0654 52.5044 70.2737 52.2961C70.3571 52.1711 70.4404 52.0669 70.5237 51.9836C70.6071 51.8586 70.7112 51.7336 70.8362 51.6086C71.1279 51.3169 71.2946 51.1294 71.3362 51.0461C71.3779 50.9211 71.4612 50.8377 71.5862 50.7961H71.7112Z" fill="black"/>
</g>
<path d="M17.3071 26.1453C18.185 25.0613 19.5298 24.6362 20.8529 24.0702C21.2255 23.9108 26.1717 21.7829 26.1717 22.0692C26.1717 22.7898 22.834 28.5623 25.4515 27.5286C26.1298 27.2608 34.1052 23.6413 34.233 24.2678C34.8772 27.4276 34.0305 28.539 38.1389 26.2441C42.1202 24.0203 40.6782 24.8604 41.297 28.1709C41.5861 29.718 44.732 24.6133 44.732 27.1828C44.732 29.0534 44.4804 30.9028 44.3442 32.7657C44.1777 35.0417 45.6743 33.1454 46.7819 32.3458C49.1381 30.6449 50.2106 30.2136 52.7656 29.4061C54.6454 28.8119 60.1897 24.5777 60.1897 27.751C60.1897 28.4206 59.9276 29.6337 60.2451 30.2707C60.4736 30.7292 65.4929 28.5981 65.8409 28.4674C66.7264 28.1346 69.4094 26.4606 70.4394 26.5405C70.933 26.5788 70.661 30.4923 70.661 30.7895C70.661 31.1874 70.2539 33.9751 71.3813 33.7045C73.92 33.095 76.4927 30.9062 78.5838 29.5543C82.0543 27.3106 78.6555 33.1116 81.0215 33.1116C84.1063 33.1116 85.5123 30.1644 85.6201 34.2973C85.6755 36.4225 93.4948 30.516 94.0969 28.3686" stroke="#E1DED4" stroke-width="16" stroke-linecap="round"/>
<path d="M27 37.3093L18 46.9911L27 54.2526L39 46.9912L27 37.3093Z" fill="white" stroke="black"/>
<path d="M83 45.3351L74 55.0169L83 62.2784L95 55.0169L83 45.3351Z" fill="white" stroke="black"/>
<defs>
<filter id="filter0_f_32_345" x="11.92" y="22.2092" width="90.5868" height="96.2908" filterUnits="userSpaceOnUse" color-interpolation-filters="sRGB">
<feFlood flood-opacity="0" result="BackgroundImageFix"/>
<feBlend mode="normal" in="SourceGraphic" in2="BackgroundImageFix" result="shape"/>
<feGaussianBlur stdDeviation="2" result="effect1_foregroundBlur_32_345"/>
</filter>
<filter id="filter1_d_32_345" x="36.5862" y="50.7961" width="39.5" height="58.875" filterUnits="userSpaceOnUse" color-interpolation-filters="sRGB">
<feFlood flood-opacity="0" result="BackgroundImageFix"/>
<feColorMatrix in="SourceAlpha" type="matrix" values="0 0 0 0 0 0 0 0 0 0 0 0 0 0 0 0 0 0 127 0" result="hardAlpha"/>
<feOffset dy="4"/>
<feGaussianBlur stdDeviation="2"/>
<feComposite in2="hardAlpha" operator="out"/>
<feColorMatrix type="matrix" values="0 0 0 0 0 0 0 0 0 0 0 0 0 0 0 0 0 0 0.5 0"/>
<feBlend mode="normal" in2="BackgroundImageFix" result="effect1_dropShadow_32_345"/>
<feBlend mode="normal" in="SourceGraphic" in2="effect1_dropShadow_32_345" result="shape"/>
</filter>
</defs>
</svg>
