<svg width="146" height="120" viewBox="0 0 146 120" fill="none" xmlns="http://www.w3.org/2000/svg">
<g filter="url(#filter0_f_40_1530)">
<path d="M16.5865 115.193V26.1051L44.6837 39.0877L57.227 26.1051L74.286 39.0877L96.3623 26.1051V115.193H16.5865Z" fill="#F2B705"/>
<path d="M16.5865 115.193V26.1051L44.6837 39.0877L57.227 26.1051L74.286 39.0877L96.3623 26.1051V115.193H16.5865Z" stroke="black"/>
</g>
<path d="M70.7738 92.8088L61.7426 102.53L70.7738 109.82L82.8154 102.53L70.7738 92.8088Z" fill="white" stroke="black"/>
<path d="M16.5865 104.001L33.1437 89.2274L47.694 104.001L33.1437 114.297L16.5865 104.001Z" fill="white" stroke="black"/>
<g filter="url(#filter1_d_40_1530)">
<path d="M71.3538 50.1299C71.6038 50.2132 71.6663 50.3799 71.5413 50.6299C71.4579 50.8799 71.3954 51.109 71.3538 51.3174C71.2704 51.609 71.2288 51.9215 71.2288 52.2549C71.2704 52.5465 71.2704 52.8382 71.2288 53.1299C71.1871 53.6715 71.1454 54.234 71.1038 54.8174C71.1038 55.4007 71.0413 55.9632 70.9163 56.5049C70.8746 56.7549 70.8121 57.0049 70.7288 57.2549C70.6454 57.4632 70.5621 57.6924 70.4788 57.9424C70.4371 58.1507 70.4163 58.3799 70.4163 58.6299C70.4163 58.8799 70.3746 59.109 70.2913 59.3174C70.2079 59.734 70.1454 60.1507 70.1038 60.5674C70.0621 60.984 69.9996 61.4215 69.9163 61.8799C69.8746 62.0882 69.8329 62.3174 69.7913 62.5674C69.7913 62.8174 69.7704 63.0674 69.7288 63.3174C69.6871 63.5257 69.6454 63.734 69.6038 63.9424C69.5621 64.1507 69.4996 64.359 69.4163 64.5674C69.3329 64.984 69.2496 65.4007 69.1663 65.8174C69.0829 66.234 68.9996 66.6715 68.9163 67.1299C68.7496 67.5882 68.6454 67.8799 68.6038 68.0049C68.6038 68.0882 68.5621 68.1507 68.4788 68.1924C68.2704 68.1924 68.1871 68.109 68.2288 67.9424C68.2704 67.734 68.2704 67.5257 68.2288 67.3174C68.1871 67.1507 68.1454 67.0049 68.1038 66.8799C68.1038 66.7549 68.1038 66.609 68.1038 66.4424C68.0621 66.2757 68.0413 66.1299 68.0413 66.0049C68.0413 65.8382 68.0204 65.6715 67.9788 65.5049C67.9788 65.3799 67.9788 65.2549 67.9788 65.1299C67.9788 64.9632 67.9579 64.8174 67.9163 64.6924C67.8746 64.5257 67.8121 64.3799 67.7288 64.2549C67.6454 64.0882 67.5621 63.9007 67.4788 63.6924C67.3954 63.484 67.3121 63.2757 67.2288 63.0674C67.1454 62.8174 67.0621 62.5882 66.9788 62.3799C66.8954 62.2549 66.7913 62.1299 66.6663 62.0049C66.5829 61.8799 66.4996 61.734 66.4163 61.5674C66.2913 61.1507 66.2079 60.9215 66.1663 60.8799C66.1246 60.8382 66.0829 60.7757 66.0413 60.6924C65.9579 60.484 65.9163 60.2965 65.9163 60.1299C65.9163 59.9632 65.8746 59.7965 65.7913 59.6299C65.6663 59.4632 65.6038 59.3382 65.6038 59.2549C65.6038 59.1299 65.5621 59.0257 65.4788 58.9424C64.9788 58.4424 64.6038 58.109 64.3538 57.9424C63.9788 57.609 63.7288 57.4215 63.6038 57.3799C63.5204 57.3382 63.3954 57.2757 63.2288 57.1924C63.0621 57.109 62.8329 57.0257 62.5413 56.9424C62.2496 56.8174 61.9996 56.7132 61.7913 56.6299C61.6246 56.4632 61.4788 56.4007 61.3538 56.4424C61.2288 56.4424 61.1246 56.4215 61.0413 56.3799C60.8329 56.2965 60.6246 56.2132 60.4163 56.1299C60.2079 56.0049 59.9996 55.9215 59.7913 55.8799C59.5829 55.7965 59.3954 55.7549 59.2288 55.7549C59.0621 55.7549 58.8954 55.734 58.7288 55.6924C58.4788 55.609 58.2288 55.5465 57.9788 55.5049C57.7288 55.4215 57.4996 55.3382 57.2913 55.2549C57.1663 55.1715 57.0204 55.109 56.8538 55.0674C56.7288 54.984 56.6246 54.9215 56.5413 54.8799C56.3746 54.9215 56.2288 54.9215 56.1038 54.8799C56.0204 54.8382 55.9371 54.8174 55.8538 54.8174C55.6454 54.7757 55.3954 54.734 55.1038 54.6924C54.8538 54.6507 54.6246 54.609 54.4163 54.5674C53.8746 54.5674 53.4579 54.5465 53.1663 54.5049C52.8746 54.4215 52.5621 54.4215 52.2288 54.5049C51.8954 54.5465 51.5829 54.6507 51.2913 54.8174C50.9996 54.984 50.7288 55.1715 50.4788 55.3799C50.2288 55.6715 49.9788 55.9007 49.7288 56.0674C49.4788 56.1924 49.2704 56.3382 49.1038 56.5049C48.8121 56.9215 48.6038 57.234 48.4788 57.4424C48.3954 57.6507 48.3121 57.8799 48.2288 58.1299C48.0204 58.4632 47.9163 58.6715 47.9163 58.7549C47.9579 58.8382 47.9579 58.9215 47.9163 59.0049C47.8329 59.1715 47.7496 59.3174 47.6663 59.4424C47.6246 59.5674 47.5829 59.6715 47.5413 59.7549C47.4163 60.3799 47.3538 60.7757 47.3538 60.9424C47.3954 61.109 47.4579 61.2965 47.5413 61.5049C47.5829 61.7132 47.5829 61.9007 47.5413 62.0674C47.5413 62.234 47.5413 62.4215 47.5413 62.6299C47.5829 62.9632 47.5829 63.1507 47.5413 63.1924C47.4996 63.234 47.4788 63.2965 47.4788 63.3799C47.3121 63.8799 47.2496 64.4424 47.2913 65.0674C47.4579 65.734 47.5413 66.1924 47.5413 66.4424C47.5413 66.6507 47.5829 66.8382 47.6663 67.0049C47.7079 67.1299 47.7496 67.234 47.7913 67.3174C47.8329 67.4007 47.8954 67.5049 47.9788 67.6299C48.0621 67.7549 48.1038 67.8799 48.1038 68.0049C48.1038 68.1299 48.1454 68.234 48.2288 68.3174C48.3121 68.5257 48.4788 68.7965 48.7288 69.1299C48.9788 69.3799 49.1246 69.5674 49.1663 69.6924C49.2496 69.8174 49.3329 69.984 49.4163 70.1924C49.5413 70.359 49.6663 70.5257 49.7913 70.6924C49.8746 70.7757 49.9579 70.8799 50.0413 71.0049C50.1663 71.0882 50.2496 71.234 50.2913 71.4424C50.6246 71.5257 50.9163 71.6507 51.1663 71.8174C51.4163 71.984 51.6871 72.1715 51.9788 72.3799C52.3538 72.7132 52.6038 72.8799 52.7288 72.8799C52.8954 72.8799 53.0204 72.9215 53.1038 73.0049C53.3121 73.1715 53.4996 73.2757 53.6663 73.3174C53.8329 73.3174 53.9996 73.3382 54.1663 73.3799C54.4163 73.5465 54.5829 73.609 54.6663 73.5674C54.7496 73.5257 54.8329 73.5465 54.9163 73.6299C54.9996 73.6715 55.1246 73.6924 55.2913 73.6924C55.4579 73.6507 55.6454 73.6507 55.8538 73.6924C56.0204 73.734 56.2079 73.7757 56.4163 73.8174C56.6663 73.859 56.9163 73.9215 57.1663 74.0049C57.6246 74.0465 58.0829 74.1299 58.5413 74.2549C58.8329 74.3799 58.9996 74.4424 59.0413 74.4424C59.0829 74.4007 59.1454 74.4007 59.2288 74.4424C59.3538 74.484 59.4788 74.5257 59.6038 74.5674C59.7704 74.5674 59.8954 74.609 59.9788 74.6924C60.5621 74.859 61.0204 74.9424 61.3538 74.9424C61.4788 74.984 61.6038 75.0257 61.7288 75.0674C61.8954 75.0674 62.0204 75.0882 62.1038 75.1299C62.3121 75.2549 62.4579 75.3174 62.5413 75.3174C62.6663 75.3174 62.7496 75.3382 62.7913 75.3799C62.9996 75.4215 63.1871 75.4632 63.3538 75.5049C63.5621 75.5049 63.7496 75.5465 63.9163 75.6299C64.1246 75.8382 64.2496 75.9424 64.2913 75.9424C64.3746 75.9007 64.4579 75.9007 64.5413 75.9424C64.7496 76.1507 64.9163 76.2549 65.0413 76.2549C65.1663 76.2549 65.2704 76.2757 65.3538 76.3174C65.7704 76.5257 66.1663 76.7132 66.5413 76.8799C66.9163 77.0049 67.2704 77.1924 67.6038 77.4424C68.1454 77.859 68.5413 78.2549 68.7913 78.6299C69.0829 78.9632 69.3329 79.2965 69.5413 79.6299C69.8329 80.1299 69.9996 80.4215 70.0413 80.5049C70.2079 80.9215 70.3121 81.1507 70.3538 81.1924C70.4371 81.234 70.4788 81.2965 70.4788 81.3799C70.5621 81.5465 70.6038 81.7549 70.6038 82.0049C70.6454 82.2132 70.6871 82.4215 70.7288 82.6299C70.7704 82.9632 70.7913 83.2965 70.7913 83.6299C70.8329 83.9632 70.8538 84.359 70.8538 84.8174C70.8121 85.1507 70.7913 85.3382 70.7913 85.3799C70.8329 85.4215 70.8538 85.484 70.8538 85.5674C70.8121 85.7757 70.7496 86.0257 70.6663 86.3174C70.6246 86.5674 70.5621 86.8174 70.4788 87.0674C70.3538 87.5674 70.2496 87.8799 70.1663 88.0049C70.1246 88.1299 70.0621 88.2965 69.9788 88.5049C69.7704 88.9632 69.5829 89.4215 69.4163 89.8799C69.2496 90.3382 69.0621 90.734 68.8538 91.0674C68.6454 91.359 68.4996 91.5465 68.4163 91.6299C68.3746 91.6715 68.3121 91.734 68.2288 91.8174C67.9788 92.234 67.8538 92.484 67.8538 92.5674C67.8954 92.6507 67.8954 92.734 67.8538 92.8174C67.5204 93.234 67.3329 93.5049 67.2913 93.6299C67.2496 93.7549 67.1871 93.859 67.1038 93.9424C66.7288 94.359 66.5204 94.5882 66.4788 94.6299C66.4371 94.6299 66.3954 94.6507 66.3538 94.6924C66.2704 94.7757 66.1871 94.9215 66.1038 95.1299C66.0204 95.2965 65.9163 95.4424 65.7913 95.5674C65.4579 95.859 65.2496 96.0257 65.1663 96.0674C65.1246 96.0674 65.0829 96.0882 65.0413 96.1299C64.8329 96.3799 64.6871 96.5257 64.6038 96.5674C64.5204 96.609 64.4371 96.6715 64.3538 96.7549L63.7913 97.1924C63.2079 97.484 62.7913 97.734 62.5413 97.9424C61.9579 98.234 61.5413 98.4424 61.2913 98.5674C61.0413 98.6507 60.7913 98.734 60.5413 98.8174C60.3329 98.9007 60.1246 99.0049 59.9163 99.1299C59.7496 99.2132 59.5413 99.2965 59.2913 99.3799C59.0413 99.5465 58.7704 99.6715 58.4788 99.7549C58.1871 99.8799 57.8746 100.005 57.5413 100.13C57.3329 100.213 57.0204 100.297 56.6038 100.38C56.2288 100.505 55.8746 100.588 55.5413 100.63C55.0413 100.713 54.4996 100.797 53.9163 100.88C53.3746 100.963 52.8329 100.963 52.2913 100.88C52.1663 100.922 51.9996 100.942 51.7913 100.942C51.6246 100.942 51.4163 100.922 51.1663 100.88C50.9579 100.838 50.7288 100.797 50.4788 100.755C50.2704 100.713 50.1246 100.672 50.0413 100.63C49.7496 100.463 49.5204 100.359 49.3538 100.317C49.1871 100.317 48.9996 100.276 48.7913 100.192C48.6246 100.109 48.4579 100.026 48.2913 99.9424C48.1246 99.9007 47.9371 99.8382 47.7288 99.7549C47.3954 99.5465 47.1663 99.4215 47.0413 99.3799C46.9579 99.3799 46.8746 99.359 46.7913 99.3174C46.4996 98.984 46.2913 98.8174 46.1663 98.8174C46.0829 98.8174 45.9996 98.7757 45.9163 98.6924C45.8329 98.609 45.7288 98.5049 45.6038 98.3799C45.5204 98.2549 45.4163 98.1507 45.2913 98.0674C45.1663 97.984 45.0413 97.9424 44.9163 97.9424C44.8329 97.9007 44.7496 97.8174 44.6663 97.6924C44.4996 97.6507 44.2913 97.4632 44.0413 97.1299C43.8329 96.8382 43.7079 96.6924 43.6663 96.6924C43.6246 96.6924 43.5829 96.6507 43.5413 96.5674C43.2079 96.2757 43.0204 96.0882 42.9788 96.0049C42.9788 95.9215 42.9371 95.8382 42.8538 95.7549C42.6871 95.5465 42.5621 95.2965 42.4788 95.0049C42.3538 94.7549 42.2496 94.5465 42.1663 94.3799C42.0829 94.2549 41.9996 94.109 41.9163 93.9424C41.8329 93.7757 41.7288 93.6299 41.6038 93.5049C41.3954 93.2132 41.2704 93.0674 41.2288 93.0674C41.1871 93.0257 41.1454 92.9632 41.1038 92.8799C40.8538 92.5882 40.7496 92.4007 40.7913 92.3174C40.8329 92.234 40.8121 92.1507 40.7288 92.0674C40.6038 91.8174 40.4996 91.6507 40.4163 91.5674C40.3746 91.484 40.3538 91.4007 40.3538 91.3174C40.2704 90.859 40.2704 90.4215 40.3538 90.0049C40.4371 89.5882 40.5413 89.2132 40.6663 88.8799C40.7496 88.7132 40.8121 88.5674 40.8538 88.4424C40.9371 88.2757 41.0204 88.109 41.1038 87.9424C41.2288 87.6507 41.3746 87.359 41.5413 87.0674C41.7079 86.734 41.8329 86.4007 41.9163 86.0674C42.0829 85.9007 42.2496 85.7549 42.4163 85.6299C42.5829 85.4632 42.7496 85.2757 42.9163 85.0674C43.0829 84.9007 43.2288 84.7132 43.3538 84.5049C43.5204 84.2965 43.7079 84.109 43.9163 83.9424C44.0413 83.859 44.1871 83.7757 44.3538 83.6924C44.5621 83.609 44.7288 83.5049 44.8538 83.3799C44.9788 83.2549 45.1038 83.1507 45.2288 83.0674C45.3538 82.984 45.4996 82.8799 45.6663 82.7549C45.9579 82.5465 46.1663 82.4007 46.2913 82.3174C46.4579 82.234 46.7079 82.1507 47.0413 82.0674C47.6663 81.9424 48.0621 81.8382 48.2288 81.7549C48.4371 81.6299 48.6038 81.5674 48.7288 81.5674C48.8121 81.5257 48.9163 81.5257 49.0413 81.5674C49.2079 81.5674 49.3538 81.5674 49.4788 81.5674C49.7288 81.5257 50.0204 81.5049 50.3538 81.5049C50.6871 81.5049 50.9579 81.5465 51.1663 81.6299C51.7079 82.0049 52.0204 82.2757 52.1038 82.4424C52.4788 82.9007 52.7288 83.2132 52.8538 83.3799C52.9788 83.5049 53.0829 83.6507 53.1663 83.8174C53.4163 84.109 53.5621 84.3382 53.6038 84.5049C53.6454 84.6299 53.7079 84.734 53.7913 84.8174C54.0829 85.1507 54.2288 85.4215 54.2288 85.6299C54.2704 85.7965 54.3329 85.9632 54.4163 86.1299C54.4579 86.2965 54.4996 86.4424 54.5413 86.5674C54.5829 86.6924 54.6038 86.8174 54.6038 86.9424C54.6871 87.734 54.6871 88.4215 54.6038 89.0049C54.4788 89.4215 54.4163 89.6924 54.4163 89.8174C54.4163 89.9007 54.4163 89.984 54.4163 90.0674C54.1246 90.5257 53.9371 90.8174 53.8538 90.9424C53.8121 91.0257 53.6871 91.1715 53.4788 91.3799C53.3538 91.5049 53.2288 91.6299 53.1038 91.7549C52.9788 91.8382 52.8329 91.9632 52.6663 92.1299C52.6246 92.1715 52.5413 92.2549 52.4163 92.3799C52.2913 92.5049 52.1663 92.5882 52.0413 92.6299C51.8746 92.7132 51.5413 92.7549 51.0413 92.7549C50.5413 92.7132 50.2288 92.6715 50.1038 92.6299C49.6871 92.4215 49.4579 92.3174 49.4163 92.3174C49.3746 92.3174 49.3121 92.2965 49.2288 92.2549C48.8954 91.9632 48.7288 91.8382 48.7288 91.8799C48.7288 91.8799 48.7079 91.859 48.6663 91.8174C48.2913 91.484 48.1038 91.234 48.1038 91.0674C48.1038 90.859 48.0829 90.6715 48.0413 90.5049C48.0413 90.2965 48.0413 90.1507 48.0413 90.0674C48.0829 89.9424 48.1454 89.7757 48.2288 89.5674C48.3121 89.4424 48.4163 89.2757 48.5413 89.0674C48.6663 88.859 48.8329 88.7132 49.0413 88.6299C49.5829 88.3799 49.9579 88.3174 50.1663 88.4424C50.4163 88.5674 50.7288 88.6299 51.1038 88.6299C51.0204 88.9215 50.8954 89.1299 50.7288 89.2549C50.6038 89.3799 50.4371 89.5049 50.2288 89.6299C50.0204 89.7965 49.7913 89.9215 49.5413 90.0049C49.3329 90.0882 49.2704 90.2965 49.3538 90.6299C50.1038 91.0465 50.6038 91.234 50.8538 91.1924C51.1038 91.109 51.4371 90.984 51.8538 90.8174C52.0621 90.734 52.2496 90.6715 52.4163 90.6299C52.6246 90.5465 52.8121 90.4632 52.9788 90.3799C53.1871 89.6715 53.2496 89.0674 53.1663 88.5674C53.0829 88.0674 52.9579 87.5257 52.7913 86.9424C52.6246 86.359 52.4788 86.0049 52.3538 85.8799C52.2704 85.7549 52.2288 85.5882 52.2288 85.3799C52.1038 85.2132 51.9371 85.109 51.7288 85.0674C51.5621 84.984 51.3954 84.9007 51.2288 84.8174C51.1038 84.6507 50.9371 84.5257 50.7288 84.4424C50.5621 84.3174 50.3746 84.2549 50.1663 84.2549C49.9579 84.2549 49.7079 84.359 49.4163 84.5674L48.7913 84.8799C48.4579 85.0465 48.2704 85.1507 48.2288 85.1924C48.2288 85.234 48.1871 85.2757 48.1038 85.3174C47.5621 85.6507 47.2079 85.9215 47.0413 86.1299C46.9163 86.3382 46.7704 86.5257 46.6038 86.6924C46.4371 86.8174 46.2704 86.984 46.1038 87.1924C45.9788 87.4007 45.8329 87.5882 45.6663 87.7549C45.3746 87.9215 45.1871 88.0674 45.1038 88.1924C45.0204 88.3174 44.9371 88.4632 44.8538 88.6299C44.8121 88.7132 44.7496 88.8382 44.6663 89.0049C44.5829 89.1715 44.5204 89.3382 44.4788 89.5049C44.4788 89.5882 44.4788 89.7132 44.4788 89.8799C44.5204 90.0465 44.5204 90.2132 44.4788 90.3799C44.4788 90.7132 44.4788 90.984 44.4788 91.1924C44.4788 91.359 44.5413 91.6299 44.6663 92.0049C44.7913 92.3799 44.8538 92.6507 44.8538 92.8174C45.1038 93.0257 45.2288 93.1924 45.2288 93.3174C45.2288 93.4007 45.2704 93.484 45.3538 93.5674C45.5204 93.859 45.6871 94.0882 45.8538 94.2549C46.0204 94.3799 46.2079 94.5257 46.4163 94.6924C46.7913 95.0674 47.0829 95.4215 47.2913 95.7549C47.5413 96.0465 47.8121 96.2965 48.1038 96.5049C48.4788 96.7549 48.8329 96.9424 49.1663 97.0674C49.5413 97.1924 50.0204 97.2132 50.6038 97.1299C50.9371 97.0465 51.3329 97.0049 51.7913 97.0049C52.2496 97.0049 52.6454 96.9632 52.9788 96.8799C53.1871 96.8382 53.3954 96.7757 53.6038 96.6924C53.8538 96.609 54.1246 96.5257 54.4163 96.4424C54.5829 96.359 54.7496 96.3174 54.9163 96.3174C55.1246 96.3174 55.3538 96.2757 55.6038 96.1924C55.8954 96.109 56.1871 96.0257 56.4788 95.9424C56.8121 95.859 57.1663 95.8174 57.5413 95.8174C57.7913 95.6507 58.0621 95.5257 58.3538 95.4424C58.6454 95.359 58.9163 95.234 59.1663 95.0674C59.2913 94.984 59.4163 94.9215 59.5413 94.8799C59.7079 94.8382 59.8538 94.7757 59.9788 94.6924L60.7288 94.3174C61.4788 93.859 62.0829 93.1507 62.5413 92.1924C62.6246 91.984 62.7079 91.7965 62.7913 91.6299C62.8746 91.4632 62.9579 91.2757 63.0413 91.0674C63.2913 90.609 63.4579 90.2549 63.5413 90.0049C63.6246 89.8382 63.7288 89.6715 63.8538 89.5049C63.9788 89.2965 64.0621 89.0882 64.1038 88.8799C64.1038 88.6715 64.0621 88.484 63.9788 88.3174C63.9371 88.109 63.9163 87.8799 63.9163 87.6299C63.9163 87.4632 63.9163 87.2965 63.9163 87.1299C63.9579 86.9215 63.9788 86.7132 63.9788 86.5049V85.3799C63.9788 84.8799 64.0204 84.4632 64.1038 84.1299C64.1871 83.7549 64.2079 83.3382 64.1663 82.8799C64.1246 82.5465 64.0413 82.2132 63.9163 81.8799C63.8329 81.5465 63.7288 81.2132 63.6038 80.8799C63.4371 80.6299 63.3121 80.5049 63.2288 80.5049C63.1871 80.4632 63.1663 80.4007 63.1663 80.3174C62.8746 79.859 62.6871 79.6299 62.6038 79.6299C62.5621 79.6299 62.5204 79.609 62.4788 79.5674C62.0621 79.3174 61.8329 79.0882 61.7913 78.8799C61.3329 78.7965 61.0829 78.734 61.0413 78.6924C60.9996 78.6507 60.9371 78.6299 60.8538 78.6299C60.3538 78.4215 59.9788 78.2757 59.7288 78.1924C59.5204 78.109 59.2913 78.0257 59.0413 77.9424C58.4579 77.8174 58.1038 77.7549 57.9788 77.7549C57.8538 77.7132 57.6871 77.6507 57.4788 77.5674C57.2704 77.4007 57.0829 77.3174 56.9163 77.3174C56.7496 77.3174 56.6246 77.2965 56.5413 77.2549C56.1246 77.1299 55.8746 77.0465 55.7913 77.0049C55.7496 76.9632 55.6871 76.9424 55.6038 76.9424C55.1038 76.8174 54.8538 76.7549 54.8538 76.7549C54.4788 76.5882 54.1454 76.5049 53.8538 76.5049C53.6038 76.4632 53.3329 76.4007 53.0413 76.3174C52.6246 76.1924 52.2913 76.1299 52.0413 76.1299C51.6246 75.9632 51.3121 75.859 51.1038 75.8174C50.8954 75.734 50.7079 75.7132 50.5413 75.7549C50.3746 75.7549 50.2079 75.7132 50.0413 75.6299C49.5413 75.3799 49.1246 75.2132 48.7913 75.1299C48.6246 75.0465 48.4579 74.9424 48.2913 74.8174C48.1663 74.6924 48.0204 74.5882 47.8538 74.5049C47.3538 74.3382 47.1038 74.2549 47.1038 74.2549C47.1038 74.2132 47.0621 74.1715 46.9788 74.1299C46.8538 74.0465 46.7288 73.9632 46.6038 73.8799C46.5204 73.7965 46.3746 73.7132 46.1663 73.6299C45.9996 73.5049 45.8329 73.3799 45.6663 73.2549C45.4996 73.0882 45.3746 72.9007 45.2913 72.6924L44.7288 72.1924C44.2704 71.859 43.9996 71.6507 43.9163 71.5674C43.8746 71.4424 43.7496 71.3382 43.5413 71.2549C43.4163 70.9215 43.2704 70.6299 43.1038 70.3799C42.9788 70.1299 42.8746 69.8799 42.7913 69.6299C42.6663 69.4215 42.5621 69.2132 42.4788 69.0049C42.3954 68.9215 42.3329 68.7965 42.2913 68.6299C42.2913 68.4215 42.2496 68.2549 42.1663 68.1299C42.0829 68.0049 42.0204 67.859 41.9788 67.6924C41.9371 67.484 41.8746 67.2965 41.7913 67.1299C41.6663 66.7132 41.5829 66.5049 41.5413 66.5049C41.5413 66.5049 41.5413 66.484 41.5413 66.4424C41.3329 65.9007 41.1663 65.5257 41.0413 65.3174C40.9579 65.109 40.8746 64.9007 40.7913 64.6924C40.7496 64.5257 40.7288 64.359 40.7288 64.1924C40.7288 64.0257 40.7288 63.859 40.7288 63.6924C40.6871 63.4007 40.6454 63.1715 40.6038 63.0049C40.6038 62.7965 40.6454 62.5465 40.7288 62.2549C40.8121 62.0049 40.8954 61.7549 40.9788 61.5049C41.0621 61.2132 41.1454 60.9215 41.2288 60.6299C41.4371 59.8799 41.6038 59.3799 41.7288 59.1299C41.8121 58.9215 41.8954 58.734 41.9788 58.5674C42.0621 58.359 42.1454 58.1507 42.2288 57.9424C42.4371 57.609 42.5413 57.4007 42.5413 57.3174C42.6246 56.984 42.7288 56.6924 42.8538 56.4424C43.1038 55.984 43.4579 55.5049 43.9163 55.0049C44.1663 54.7549 44.3121 54.609 44.3538 54.5674C44.4371 54.484 44.5204 54.4007 44.6038 54.3174C44.8538 53.984 45.0204 53.7965 45.1038 53.7549C45.2288 53.6715 45.3329 53.5674 45.4163 53.4424C45.7496 53.109 45.9371 52.9215 45.9788 52.8799C46.0204 52.8382 46.1038 52.7757 46.2288 52.6924C46.4371 52.5257 46.6246 52.3382 46.7913 52.1299C46.9996 51.9215 47.1871 51.7757 47.3538 51.6924C47.8121 51.5674 48.1454 51.4424 48.3538 51.3174C48.6038 51.1924 48.8746 51.0882 49.1663 51.0049C49.5829 50.8799 49.9163 50.8382 50.1663 50.8799C50.4163 50.8799 50.6663 50.859 50.9163 50.8174C51.0829 50.7757 51.2288 50.734 51.3538 50.6924C51.5204 50.609 51.7079 50.5674 51.9163 50.5674C52.1246 50.5257 52.3121 50.5257 52.4788 50.5674C52.6871 50.5674 52.8954 50.5674 53.1038 50.5674C53.3121 50.5674 53.4788 50.5465 53.6038 50.5049C53.7704 50.4632 53.9371 50.4632 54.1038 50.5049C54.3538 50.5049 54.6454 50.5465 54.9788 50.6299C55.1454 50.6715 55.3121 50.6924 55.4788 50.6924C55.6454 50.6507 55.7913 50.6507 55.9163 50.6924C56.4996 50.9007 56.8954 51.0257 57.1038 51.0674C57.3121 51.1507 57.5413 51.2549 57.7913 51.3799C58.0829 51.4632 58.3329 51.5465 58.5413 51.6299C58.9996 51.8382 59.3329 51.9632 59.5413 52.0049C59.7496 52.0465 59.8954 52.0882 59.9788 52.1299C60.2704 52.2549 60.5413 52.4007 60.7913 52.5674C61.0413 52.6924 61.3121 52.8382 61.6038 53.0049C61.8121 53.0882 61.9579 53.1715 62.0413 53.2549C62.1246 53.2965 62.2496 53.359 62.4163 53.4424C62.6663 53.5674 62.8538 53.6715 62.9788 53.7549C63.1038 53.7965 63.2496 53.859 63.4163 53.9424C63.5413 54.109 63.8329 54.2132 64.2913 54.2549C64.9163 54.3799 65.4788 54.4424 65.9788 54.4424C66.5204 54.4007 66.9163 54.3382 67.1663 54.2549C67.5413 54.1299 67.8329 53.9424 68.0413 53.6924C68.2496 53.4424 68.4788 53.234 68.7288 53.0674C68.8538 52.734 69.0204 52.4632 69.2288 52.2549C69.4788 52.0465 69.7079 51.8382 69.9163 51.6299C69.9996 51.5049 70.0829 51.4007 70.1663 51.3174C70.2496 51.1924 70.3538 51.0674 70.4788 50.9424C70.7704 50.6507 70.9371 50.4632 70.9788 50.3799C71.0204 50.2549 71.1038 50.1715 71.2288 50.1299H71.3538Z" fill="black"/>
</g>
<path d="M17.4539 25.1645C18.3123 24.0537 19.6272 23.6181 20.9211 23.0381C21.2853 22.8748 26.1218 20.6942 26.1218 20.9877C26.1218 21.7261 22.8581 27.6414 25.4175 26.5821C26.0808 26.3076 33.8792 22.5986 34.0041 23.2406C34.634 26.4786 33.8061 27.6174 37.8233 25.2658C41.7162 22.987 40.3063 23.8479 40.9113 27.2403C41.194 28.8257 44.27 23.5947 44.27 26.2277C44.27 28.1446 44.024 30.0398 43.8908 31.9488C43.7281 34.2811 45.1914 32.3378 46.2745 31.5184C48.5784 29.7754 49.627 29.3335 52.1253 28.506C53.9634 27.8972 59.3846 23.5582 59.3846 26.81C59.3846 27.4962 59.1283 28.7392 59.4388 29.392C59.6622 29.8619 64.5701 27.6781 64.9103 27.5441C65.7762 27.2031 68.3997 25.4877 69.4068 25.5696C69.8894 25.6088 69.6235 29.6191 69.6235 29.9236C69.6235 30.3314 69.2254 33.1881 70.3277 32.9107C72.8101 32.2861 75.3257 30.0432 77.3704 28.6579C80.7638 26.3587 77.4405 32.3032 79.754 32.3032C82.7703 32.3032 84.1451 29.283 84.2505 33.5183C84.3046 35.696 91.9504 29.6434 92.5391 27.4428" stroke="#E1DED4" stroke-width="16" stroke-linecap="round"/>
<path d="M26.9316 36.6047L18.1314 46.5261L26.9316 53.9671L38.6652 46.5261L26.9316 36.6047Z" fill="white" stroke="black"/>
<path d="M81.6885 44.829L72.8883 54.7504L81.6885 62.1914L93.4221 54.7504L81.6885 44.829Z" fill="white" stroke="black"/>
<defs>
<filter id="filter0_f_40_1530" x="12.0865" y="21.231" width="88.7757" height="98.4615" filterUnits="userSpaceOnUse" color-interpolation-filters="sRGB">
<feFlood flood-opacity="0" result="BackgroundImageFix"/>
<feBlend mode="normal" in="SourceGraphic" in2="BackgroundImageFix" result="shape"/>
<feGaussianBlur stdDeviation="2" result="effect1_foregroundBlur_40_1530"/>
</filter>
<filter id="filter1_d_40_1530" x="36.2288" y="50.1299" width="39.5" height="58.875" filterUnits="userSpaceOnUse" color-interpolation-filters="sRGB">
<feFlood flood-opacity="0" result="BackgroundImageFix"/>
<feColorMatrix in="SourceAlpha" type="matrix" values="0 0 0 0 0 0 0 0 0 0 0 0 0 0 0 0 0 0 127 0" result="hardAlpha"/>
<feOffset dy="4"/>
<feGaussianBlur stdDeviation="2"/>
<feComposite in2="hardAlpha" operator="out"/>
<feColorMatrix type="matrix" values="0 0 0 0 0 0 0 0 0 0 0 0 0 0 0 0 0 0 0.5 0"/>
<feBlend mode="normal" in2="BackgroundImageFix" result="effect1_dropShadow_40_1530"/>
<feBlend mode="normal" in="SourceGraphic" in2="effect1_dropShadow_40_1530" result="shape"/>
</filter>
</defs>
</svg>
